<?xml version="1.0" encoding="utf-8"?>
<!-- Generator: Adobe Illustrator 22.0.0, SVG Export Plug-In . SVG Version: 6.00 Build 0)  -->
<!DOCTYPE svg PUBLIC "-//W3C//DTD SVG 1.1//EN" "http://www.w3.org/Graphics/SVG/1.1/DTD/svg11.dtd">
<svg version="1.1" id="Layer_1" xmlns="http://www.w3.org/2000/svg" xmlns:xlink="http://www.w3.org/1999/xlink" x="0px" y="0px"
	 viewBox="0 0 624 85" style="enable-background:new 0 0 624 85;" xml:space="preserve">
<style type="text/css">
	.st0{fill:#3B97D2;}
	.st1{fill:url(#SVGID_1_);}
	.st2{fill:#EF4F24;}
	.st3{fill:#D24427;}
	.st4{fill:url(#SVGID_2_);}
	.st5{fill:url(#SVGID_3_);}
	.st6{fill:url(#SVGID_4_);}
	.st7{fill:url(#SVGID_5_);}
	.st8{fill:url(#SVGID_6_);}
	.st9{fill:url(#SVGID_7_);}
</style>
<g>
	<g>
		<g>
			<g>
				<path class="st0" d="M276.3,6.2l25.3,30.3l25.2-30.3h13.3v76.9h-14.9v-54h-0.4l-22.2,27.1h-2.1l-24.2-27.1"/>
			</g>
			<path class="st0" d="M276.3,6.2v47.8c0,10.4-2.7,18.2-8.2,23.4c-5.5,5.1-13.8,7.7-24.8,7.7c-11.2,0-19.6-2.6-25.1-7.7
				c-5.5-5.1-8.2-12.9-8.2-23.4V6.2h16.3v45.3c0,6.3,1.4,11.1,4.2,14.3c2.8,3.2,7,4.8,12.5,4.8c5.6,0,9.8-1.6,12.7-4.8
				c2.9-3.2,4.3-8,4.3-14.3V6.2H276.3z"/>
		</g>
		<path class="st0" d="M157.9,83.1V6.2h47.7v13.9h-31.3v15.8h31.3v14h-31.3v19.3h31.3v14H157.9z"/>
		<path class="st0" d="M86.3,83.1V6.2h20.9c8.3,0,14.8,0.6,19.5,1.7c4.8,1.2,8.9,3.1,12.5,5.8c4.7,3.5,8.2,7.8,10.6,13.1
			c2.4,5.3,3.6,11.3,3.6,18c0,6.8-1.2,12.9-3.7,18.1c-2.4,5.3-6,9.6-10.8,13.1c-3.5,2.5-7.4,4.3-11.7,5.4
			c-4.3,1.1-10.6,1.7-18.8,1.7h-5.8H86.3z M102.7,69.2h9.1c8.6,0,14.9-2,18.8-5.9c3.9-3.9,5.9-10.1,5.9-18.6c0-8.5-2-14.7-5.9-18.6
			c-3.9-3.9-10.2-5.9-18.8-5.9h-9.1V69.2z"/>
		<path class="st0" d="M82.2,44.8c0,5.5-1,10.7-3.1,15.6c-2,4.9-5,9.2-8.8,12.9c-4,3.8-8.5,6.7-13.5,8.8c-5,2-10.2,3-15.5,3
			c-4.7,0-9.3-0.8-13.8-2.4c-4.5-1.6-8.6-3.9-12.4-6.9C10.3,72.1,6.6,67.5,4,62.1S0.2,51,0.2,44.8c0-5.5,1-10.7,3-15.6
			c2-4.8,5-9.2,8.9-12.9c3.8-3.7,8.3-6.7,13.4-8.7c5.1-2.1,10.3-3.1,15.7-3.1c5.4,0,10.6,1,15.6,3.1c5.1,2.1,9.5,5,13.4,8.7
			c3.9,3.8,6.8,8.1,8.9,13C81.2,34.1,82.2,39.3,82.2,44.8z M41.3,70.5c7,0,12.7-2.4,17.2-7.3c4.5-4.9,6.8-11,6.8-18.4
			c0-7.3-2.3-13.4-6.9-18.4c-4.6-5-10.3-7.5-17.2-7.5c-7,0-12.7,2.5-17.3,7.4c-4.6,5-6.9,11.1-6.9,18.4c0,7.4,2.3,13.6,6.8,18.4
			C28.4,68.1,34.2,70.5,41.3,70.5z"/>
		<linearGradient id="SVGID_1_" gradientUnits="userSpaceOnUse" x1="276.2934" y1="22.0135" x2="284.0484" y2="22.0135">
			<stop  offset="0" style="stop-color:#185273"/>
			<stop  offset="1" style="stop-color:#3B97D2;stop-opacity:0"/>
		</linearGradient>
		<polygon class="st1" points="284,37.8 276.3,29.1 276.3,6.2 284,15.5 		"/>
		<g>
			<path class="st0" d="M344.3,10.1c0-1.8,0.4-3.4,1.3-5c0.9-1.5,2.1-2.8,3.7-3.7c1.6-0.9,3.2-1.4,5-1.4c1.8,0,3.5,0.4,5.1,1.3
				s2.7,2.1,3.6,3.7c0.9,1.5,1.3,3.2,1.3,5c0,1.8-0.4,3.5-1.3,5.1c-0.9,1.5-2.1,2.7-3.7,3.6c-1.5,0.9-3.2,1.3-5,1.3
				c-1.8,0-3.5-0.5-5-1.4c-1.6-0.9-2.8-2.1-3.7-3.6C344.7,13.6,344.3,11.9,344.3,10.1z M346.1,10.1c0,1.5,0.4,2.9,1.1,4.1
				s1.7,2.2,3,3c1.2,0.7,2.6,1.1,4.1,1.1c1.5,0,2.9-0.4,4.1-1.1c1.3-0.7,2.3-1.7,3-3s1.1-2.6,1.1-4.1c0-1.5-0.4-2.8-1.1-4.1
				s-1.7-2.3-3-3s-2.6-1.1-4.1-1.1c-1.5,0-2.8,0.4-4.1,1.1s-2.2,1.7-3,3C346.5,7.3,346.1,8.7,346.1,10.1z M355.2,4.8
				c1,0,1.8,0.3,2.4,0.8c0.6,0.5,0.9,1.2,0.9,2.1c0,0.8-0.3,1.5-0.8,2.1c-0.5,0.6-1.2,0.9-2.1,0.9v0.1c0.4,0.1,0.7,0.4,1.1,0.7
				c0.3,0.3,0.8,0.9,1.3,1.9l1.3,2.1h-2.4l-0.5-0.9c-0.4-0.9-0.8-1.6-1.2-2.1c-0.4-0.5-0.7-0.9-1-1.1c-0.3-0.2-0.7-0.3-1.2-0.3h-0.9
				v4.4h-2V4.8H355.2z M354.5,9.5c0.6,0,1.1-0.1,1.5-0.4s0.5-0.6,0.5-1.1s-0.2-0.9-0.5-1.1c-0.4-0.3-0.8-0.4-1.4-0.4h-2.4v3H354.5z"
				/>
		</g>
	</g>
	<g>
		<polygon class="st2" points="609.6,42.6 368.8,42.6 383,0.1 623.8,0.1 		"/>
		<polygon class="st3" points="609.6,42.6 368.8,42.6 383,85.2 623.8,85.2 		"/>
	</g>
	<g>
		<linearGradient id="SVGID_2_" gradientUnits="userSpaceOnUse" x1="411.3998" y1="65.1179" x2="411.3998" y2="25.6614">
			<stop  offset="0" style="stop-color:#E6E7E8"/>
			<stop  offset="0.3048" style="stop-color:#E4E5E6"/>
			<stop  offset="0.4145" style="stop-color:#DDDFE0"/>
			<stop  offset="0.4925" style="stop-color:#D2D4D5"/>
			<stop  offset="0.5" style="stop-color:#D0D2D3"/>
			<stop  offset="0.5036" style="stop-color:#D5D7D8"/>
			<stop  offset="0.518" style="stop-color:#E5E6E7"/>
			<stop  offset="0.5346" style="stop-color:#EEEEEF"/>
			<stop  offset="0.5576" style="stop-color:#F1F1F2"/>
			<stop  offset="0.5984" style="stop-color:#F6F6F7"/>
			<stop  offset="0.7047" style="stop-color:#FDFDFD"/>
			<stop  offset="1" style="stop-color:#FFFFFF"/>
		</linearGradient>
		<path class="st4" d="M430.4,48.9h-30c0.2,2.8,1.5,5,3.8,6.7c2.4,1.7,5,2.6,8.1,2.6c4.8,0,8.4-1.5,10.9-4.5l4.6,5
			c-4.1,4.3-9.5,6.4-16.1,6.4c-5.4,0-9.9-1.8-13.7-5.4c-3.8-3.6-5.6-8.4-5.6-14.4c0-6,1.9-10.8,5.8-14.4c3.8-3.6,8.4-5.3,13.6-5.3
			c5.2,0,9.6,1.6,13.3,4.7c3.6,3.1,5.5,7.5,5.5,13V48.9z M400.4,42.6h21.9c0-3.2-1-5.7-3-7.4c-2-1.7-4.5-2.6-7.4-2.6
			c-2.9,0-5.6,0.9-8,2.7C401.6,37.1,400.4,39.5,400.4,42.6z"/>
		<linearGradient id="SVGID_3_" gradientUnits="userSpaceOnUse" x1="448.216" y1="46.8298" x2="448.216" y2="39.2688">
			<stop  offset="0" style="stop-color:#E6E7E8"/>
			<stop  offset="0.3048" style="stop-color:#E4E5E6"/>
			<stop  offset="0.4145" style="stop-color:#DDDFE0"/>
			<stop  offset="0.4925" style="stop-color:#D2D4D5"/>
			<stop  offset="0.5" style="stop-color:#D0D2D3"/>
			<stop  offset="0.5036" style="stop-color:#D5D7D8"/>
			<stop  offset="0.518" style="stop-color:#E5E6E7"/>
			<stop  offset="0.5346" style="stop-color:#EEEEEF"/>
			<stop  offset="0.5576" style="stop-color:#F1F1F2"/>
			<stop  offset="0.5984" style="stop-color:#F6F6F7"/>
			<stop  offset="0.7047" style="stop-color:#FDFDFD"/>
			<stop  offset="1" style="stop-color:#FFFFFF"/>
		</linearGradient>
		<path class="st5" d="M437.8,46.8v-7.6h20.9v7.6H437.8z"/>
		<linearGradient id="SVGID_4_" gradientUnits="userSpaceOnUse" x1="485.6623" y1="64.5417" x2="485.6623" y2="14.2131">
			<stop  offset="0" style="stop-color:#E6E7E8"/>
			<stop  offset="0.3048" style="stop-color:#E4E5E6"/>
			<stop  offset="0.4145" style="stop-color:#DDDFE0"/>
			<stop  offset="0.4925" style="stop-color:#D2D4D5"/>
			<stop  offset="0.5" style="stop-color:#D0D2D3"/>
			<stop  offset="0.5036" style="stop-color:#D5D7D8"/>
			<stop  offset="0.518" style="stop-color:#E5E6E7"/>
			<stop  offset="0.5346" style="stop-color:#EEEEEF"/>
			<stop  offset="0.5576" style="stop-color:#F1F1F2"/>
			<stop  offset="0.5984" style="stop-color:#F6F6F7"/>
			<stop  offset="0.7047" style="stop-color:#FDFDFD"/>
			<stop  offset="1" style="stop-color:#FFFFFF"/>
		</linearGradient>
		<path class="st6" d="M500,18.6c3.5,2.9,5.3,7.4,5.3,13.5c0,6.1-1.8,10.6-5.4,13.4c-3.6,2.8-9.1,4.2-16.4,4.2h-8.9v14.8h-8.5V14.2
			h17.3C491,14.2,496.5,15.7,500,18.6z M494,39.4c1.7-1.8,2.6-4.4,2.6-7.9c0-3.5-1.1-5.9-3.2-7.4c-2.2-1.4-5.5-2.2-10.1-2.2h-8.6
			v20.2h9.9C489.1,42.1,492.3,41.2,494,39.4z"/>
		<linearGradient id="SVGID_5_" gradientUnits="userSpaceOnUse" x1="512.51" y1="64.5417" x2="512.51" y2="11.1174">
			<stop  offset="0" style="stop-color:#E6E7E8"/>
			<stop  offset="0.3048" style="stop-color:#E4E5E6"/>
			<stop  offset="0.4145" style="stop-color:#DDDFE0"/>
			<stop  offset="0.4925" style="stop-color:#D2D4D5"/>
			<stop  offset="0.5" style="stop-color:#D0D2D3"/>
			<stop  offset="0.5036" style="stop-color:#D5D7D8"/>
			<stop  offset="0.518" style="stop-color:#E5E6E7"/>
			<stop  offset="0.5346" style="stop-color:#EEEEEF"/>
			<stop  offset="0.5576" style="stop-color:#F1F1F2"/>
			<stop  offset="0.5984" style="stop-color:#F6F6F7"/>
			<stop  offset="0.7047" style="stop-color:#FDFDFD"/>
			<stop  offset="1" style="stop-color:#FFFFFF"/>
		</linearGradient>
		<path class="st7" d="M516.5,64.5h-8.1V11.1h8.1V64.5z"/>
		<linearGradient id="SVGID_6_" gradientUnits="userSpaceOnUse" x1="537.2559" y1="65.1179" x2="537.2559" y2="25.6614">
			<stop  offset="0" style="stop-color:#E6E7E8"/>
			<stop  offset="0.3048" style="stop-color:#E4E5E6"/>
			<stop  offset="0.4145" style="stop-color:#DDDFE0"/>
			<stop  offset="0.4925" style="stop-color:#D2D4D5"/>
			<stop  offset="0.5" style="stop-color:#D0D2D3"/>
			<stop  offset="0.5036" style="stop-color:#D5D7D8"/>
			<stop  offset="0.518" style="stop-color:#E5E6E7"/>
			<stop  offset="0.5346" style="stop-color:#EEEEEF"/>
			<stop  offset="0.5576" style="stop-color:#F1F1F2"/>
			<stop  offset="0.5984" style="stop-color:#F6F6F7"/>
			<stop  offset="0.7047" style="stop-color:#FDFDFD"/>
			<stop  offset="1" style="stop-color:#FFFFFF"/>
		</linearGradient>
		<path class="st8" d="M554.2,64.5h-7.3v-5.1c-3.2,3.8-7.4,5.7-12.7,5.7c-4,0-7.3-1.1-9.9-3.4c-2.6-2.3-3.9-5.3-3.9-9
			c0-3.8,1.4-6.6,4.2-8.5c2.8-1.9,6.5-2.8,11.3-2.8h10.4V40c0-5.1-2.8-7.6-8.5-7.6c-3.6,0-7.2,1.3-11.1,3.9l-3.6-5
			c4.7-3.7,9.9-5.5,15.8-5.5c4.5,0,8.2,1.1,11,3.4c2.9,2.3,4.3,5.9,4.3,10.8V64.5z M546.1,50.3V47h-9.1c-5.8,0-8.7,1.8-8.7,5.5
			c0,1.9,0.7,3.3,2.2,4.3c1.4,1,3.4,1.5,6,1.5c2.6,0,4.8-0.7,6.7-2.2C545.2,54.7,546.1,52.7,546.1,50.3z"/>
		<linearGradient id="SVGID_7_" gradientUnits="userSpaceOnUse" x1="577.9552" y1="64.5417" x2="577.9552" y2="25.6614">
			<stop  offset="0" style="stop-color:#E6E7E8"/>
			<stop  offset="0.3048" style="stop-color:#E4E5E6"/>
			<stop  offset="0.4145" style="stop-color:#DDDFE0"/>
			<stop  offset="0.4925" style="stop-color:#D2D4D5"/>
			<stop  offset="0.5" style="stop-color:#D0D2D3"/>
			<stop  offset="0.5036" style="stop-color:#D5D7D8"/>
			<stop  offset="0.518" style="stop-color:#E5E6E7"/>
			<stop  offset="0.5346" style="stop-color:#EEEEEF"/>
			<stop  offset="0.5576" style="stop-color:#F1F1F2"/>
			<stop  offset="0.5984" style="stop-color:#F6F6F7"/>
			<stop  offset="0.7047" style="stop-color:#FDFDFD"/>
			<stop  offset="1" style="stop-color:#FFFFFF"/>
		</linearGradient>
		<path class="st9" d="M568.4,43.8v20.7h-8.1V26.2h8.1v7c1.3-2.4,3.1-4.2,5.4-5.5c2.3-1.3,4.7-2,7.4-2c4.3,0,7.8,1.3,10.5,4
			c2.7,2.6,4,6.5,4,11.4v23.5h-8.1v-21c0-7.1-2.9-10.6-8.8-10.6c-2.8,0-5.2,0.9-7.3,2.8C569.4,37.6,568.4,40.3,568.4,43.8z"/>
	</g>
</g>
</svg>
