<?xml version="1.0" standalone="yes"?>

<svg version="1.1" viewBox="0.0 0.0 960.0 540.0" fill="none" stroke="none" stroke-linecap="square" stroke-miterlimit="10" xmlns="http://www.w3.org/2000/svg" xmlns:xlink="http://www.w3.org/1999/xlink"><clipPath id="g21337511ee_0_11.0"><path d="m0 0l960.0 0l0 540.0l-960.0 0l0 -540.0z" clip-rule="nonzero"></path></clipPath><g clip-path="url(#g21337511ee_0_11.0)"><path fill="#ffffff" d="m0 0l960.0 0l0 540.0l-960.0 0z" fill-rule="evenodd"></path><path fill="#3b97d3" d="m402.72702 328.48627l0 0c0 -19.749268 16.00998 -35.759247 35.759247 -35.759247l449.4264 0c9.483948 0 18.579468 3.7674866 25.285645 10.473663c6.7061157 6.7061462 10.473633 15.801666 10.473633 25.285583l0 143.03271c0 19.749268 -16.01001 35.759247 -35.759277 35.759247l-449.4264 0c-19.749268 0 -35.759247 -16.00998 -35.759247 -35.759247z" fill-rule="evenodd"></path><path stroke="#2280c3" stroke-width="4.0" stroke-linejoin="round" stroke-linecap="butt" d="m402.72702 328.48627l0 0c0 -19.749268 16.00998 -35.759247 35.759247 -35.759247l449.4264 0c9.483948 0 18.579468 3.7674866 25.285645 10.473663c6.7061157 6.7061462 10.473633 15.801666 10.473633 25.285583l0 143.03271c0 19.749268 -16.01001 35.759247 -35.759277 35.759247l-449.4264 0c-19.749268 0 -35.759247 -16.00998 -35.759247 -35.759247z" fill-rule="evenodd"></path><path fill="#ffffff" d="m457.7932 331.332q3.328125 0 5.796875 1.546875q2.46875 1.53125 3.8125 4.328125q1.34375 2.78125 1.34375 6.09375q0 3.34375 -1.34375 6.125q-1.328125 2.765625 -3.828125 4.3125q-2.484375 1.53125 -5.78125 1.53125q-3.296875 0 -5.78125 -1.53125q-2.46875 -1.53125 -3.8125 -4.296875q-1.34375 -2.78125 -1.34375 -6.140625q0 -5.1875 2.96875 -8.578125q2.984375 -3.390625 7.96875 -3.390625zm-7.90625 11.96875q0 2.546875 0.921875 4.75q0.9375 2.203125 2.734375 3.4375q1.8125 1.21875 4.25 1.21875q3.671875 0 5.78125 -2.640625q2.125 -2.65625 2.125 -6.765625q0 -4.0625 -2.09375 -6.734375q-2.09375 -2.671875 -5.84375 -2.671875q-3.671875 0 -5.78125 2.6875q-2.09375 2.6875 -2.09375 6.71875zm30.578125 -11.421875q5.1875 0 7.984375 2.75q2.8125 2.75 2.8125 8.140625q0 6.03125 -2.78125 9.0q-2.765625 2.953125 -8.015625 2.953125l-8.015625 0l0 -22.84375l8.015625 0zm0.1875 20.28125q3.421875 0 5.484375 -2.234375q2.078125 -2.234375 2.078125 -6.75q0 -4.53125 -1.890625 -6.625q-1.875 -2.109375 -5.5625 -2.109375l-5.28125 0l0 17.71875l5.171875 0zm30.09375 -20.28125l0 2.5625l-12.734375 0l0 7.25l11.875 0l0 2.5625l-11.875 0l0 7.90625l12.84375 0l0 2.5625l-15.875 0l0 -22.84375l15.765625 0zm6.6875 0l0 14.71875q0 2.796875 1.59375 4.453125q1.609375 1.65625 4.75 1.65625q2.953125 0 4.453125 -1.640625q1.5 -1.65625 1.5 -4.46875l0 -14.71875l3.03125 0l0 14.75q0 4.03125 -2.265625 6.34375q-2.25 2.296875 -6.71875 2.296875q-4.671875 0 -7.03125 -2.25q-2.34375 -2.25 -2.34375 -6.390625l0 -14.75l3.03125 0zm24.421875 0l7.203125 19.1875l7.234375 -19.1875l4.15625 0l0 22.84375l-2.875 0l0 -19.015625l-0.0625 0l-7.140625 19.015625l-2.59375 0l-7.140625 -19.015625l-0.0625 0l0 19.015625l-2.875 0l0 -22.84375l4.15625 0zm42.234375 -0.546875q3.796875 0 6.34375 1.96875q2.5625 1.96875 3.0625 5.453125l-3.03125 0q-0.5 -2.34375 -2.203125 -3.59375q-1.6875 -1.265625 -4.203125 -1.265625q-3.625 0 -5.6875 2.5625q-2.046875 2.5625 -2.046875 6.6875q0 4.375 2.015625 6.96875q2.015625 2.59375 5.75 2.59375q2.796875 0 4.578125 -1.765625q1.796875 -1.78125 2.015625 -4.828125l3.046875 0q-0.5 4.4375 -3.09375 6.796875q-2.578125 2.359375 -6.796875 2.359375q-4.90625 0 -7.734375 -3.25q-2.828125 -3.25 -2.828125 -8.65625q0 -5.328125 2.921875 -8.671875q2.921875 -3.359375 7.890625 -3.359375zm20.109375 6.46875q3.75 0 5.890625 2.421875q2.140625 2.421875 2.140625 6.25q0 3.859375 -2.1875 6.25q-2.1875 2.390625 -5.84375 2.390625q-3.59375 0 -5.8125 -2.34375q-2.21875 -2.359375 -2.21875 -6.296875q0 -3.9375 2.171875 -6.296875q2.171875 -2.375 5.859375 -2.375zm-5.15625 8.671875q0 2.84375 1.453125 4.546875q1.453125 1.6875 3.703125 1.6875q2.234375 0 3.6875 -1.703125q1.46875 -1.703125 1.46875 -4.53125q0 -2.828125 -1.453125 -4.546875q-1.453125 -1.734375 -3.734375 -1.734375q-2.1875 0 -3.65625 1.703125q-1.46875 1.6875 -1.46875 4.578125zm31.171875 -14.59375l0 22.84375l-2.71875 0l0 -2.234375l-0.0625 0q-0.640625 1.28125 -2.046875 1.953125q-1.390625 0.671875 -3.234375 0.671875q-3.46875 0 -5.546875 -2.40625q-2.0625 -2.40625 -2.0625 -6.296875q0 -3.828125 2.0 -6.21875q2.015625 -2.390625 5.53125 -2.390625q1.625 0 3.078125 0.65625q1.46875 0.65625 2.28125 1.921875l0.0625 0l0 -8.5l2.71875 0zm-12.796875 14.703125q0 2.671875 1.375 4.40625q1.390625 1.71875 3.75 1.71875q2.40625 0 3.71875 -1.71875q1.328125 -1.734375 1.328125 -4.515625q0 -2.828125 -1.359375 -4.546875q-1.359375 -1.734375 -3.890625 -1.734375q-2.34375 0 -3.640625 1.71875q-1.28125 1.703125 -1.28125 4.671875zm23.859375 -8.78125q3.5625 0 5.53125 2.5625q1.96875 2.5625 1.96875 6.578125l0 0.328125l-12.390625 0l0 0.203125q0 2.359375 1.375 3.796875q1.375 1.4375 3.78125 1.4375q1.8125 0 2.875 -0.84375q1.078125 -0.84375 1.40625 -2.390625l2.6875 0q-0.546875 2.75 -2.40625 4.203125q-1.859375 1.4375 -4.65625 1.4375q-2.609375 0 -4.421875 -1.171875q-1.796875 -1.1875 -2.65625 -3.28125q-0.859375 -2.109375 -0.859375 -4.3125q0 -3.65625 2.203125 -6.09375q2.203125 -2.453125 5.5625 -2.453125zm-4.890625 7.0625l9.5 0q-0.125 -2.015625 -1.46875 -3.34375q-1.328125 -1.328125 -3.328125 -1.328125q-1.875 0 -3.203125 1.265625q-1.328125 1.265625 -1.5 3.40625zm27.265625 -12.984375l0 17.25q0 2.703125 -1.703125 4.421875q-1.703125 1.71875 -5.046875 1.71875q-3.078125 0 -4.875 -1.625q-1.78125 -1.640625 -1.78125 -5.640625l0 -0.796875l3.046875 0l0 0.703125q0 2.8125 0.90625 3.8125q0.921875 0.984375 2.765625 0.984375q1.875 0 2.765625 -0.984375q0.890625 -1.0 0.890625 -3.015625l0 -16.828125l3.03125 0zm12.671875 -0.546875q3.8125 0 6.046875 1.84375q2.234375 1.84375 2.375 5.390625l-2.875 0q-0.265625 -2.34375 -1.6875 -3.5q-1.421875 -1.171875 -3.984375 -1.171875q-2.4375 0 -3.78125 1.015625q-1.34375 1.0 -1.34375 2.875q0 1.34375 1.140625 2.203125q1.15625 0.859375 6.203125 1.875q3.65625 0.75 5.46875 2.296875q1.8125 1.546875 1.8125 4.296875q0 3.1875 -2.609375 5.0q-2.59375 1.8125 -6.328125 1.8125q-4.140625 0 -6.765625 -2.078125q-2.625 -2.078125 -2.65625 -5.984375l2.875 0q0.03125 2.609375 1.859375 4.0625q1.84375 1.4375 4.796875 1.4375q2.765625 0 4.28125 -1.0625q1.515625 -1.078125 1.515625 -3.09375q0 -1.625 -1.390625 -2.609375q-1.390625 -0.984375 -5.046875 -1.6875q-4.875 -0.921875 -6.53125 -2.375q-1.65625 -1.46875 -1.65625 -3.859375q0 -3.078125 2.328125 -4.875q2.34375 -1.8125 5.953125 -1.8125zm31.640625 0q3.796875 0 6.34375 1.96875q2.5625 1.96875 3.0625 5.453125l-3.03125 0q-0.5 -2.34375 -2.203125 -3.59375q-1.6875 -1.265625 -4.203125 -1.265625q-3.625 0 -5.6875 2.5625q-2.046875 2.5625 -2.046875 6.6875q0 4.375 2.015625 6.96875q2.015625 2.59375 5.75 2.59375q2.796875 0 4.578125 -1.765625q1.796875 -1.78125 2.015625 -4.828125l3.046875 0q-0.5 4.4375 -3.09375 6.796875q-2.578125 2.359375 -6.796875 2.359375q-4.90625 0 -7.734375 -3.25q-2.828125 -3.25 -2.828125 -8.65625q0 -5.328125 2.921875 -8.671875q2.921875 -3.359375 7.890625 -3.359375zm20.109375 6.46875q3.75 0 5.890625 2.421875q2.140625 2.421875 2.140625 6.25q0 3.859375 -2.1875 6.25q-2.1875 2.390625 -5.84375 2.390625q-3.59375 0 -5.8125 -2.34375q-2.21875 -2.359375 -2.21875 -6.296875q0 -3.9375 2.171875 -6.296875q2.171875 -2.375 5.859375 -2.375zm-5.15625 8.671875q0 2.84375 1.453125 4.546875q1.453125 1.6875 3.703125 1.6875q2.234375 0 3.6875 -1.703125q1.46875 -1.703125 1.46875 -4.53125q0 -2.828125 -1.453125 -4.546875q-1.453125 -1.734375 -3.734375 -1.734375q-2.1875 0 -3.65625 1.703125q-1.46875 1.6875 -1.46875 4.578125zm24.359375 -8.671875q1.8125 0 2.953125 0.734375q1.15625 0.734375 1.59375 2.078125q0.84375 -1.328125 2.203125 -2.0625q1.359375 -0.75 3.0 -0.75q2.796875 0 4.140625 1.265625q1.34375 1.265625 1.34375 3.421875l0 12.234375l-2.71875 0l0 -10.96875q0 -1.78125 -0.765625 -2.671875q-0.75 -0.890625 -2.4375 -0.890625q-2.03125 0 -3.171875 1.1875q-1.140625 1.1875 -1.140625 2.953125l0 10.390625l-2.734375 0l0 -10.96875q0 -1.78125 -0.75 -2.671875q-0.75 -0.890625 -2.34375 -0.890625q-1.296875 0 -2.296875 0.625q-1.0 0.625 -1.5625 1.71875q-0.5625 1.078125 -0.5625 1.828125l0 10.359375l-2.71875 0l0 -16.546875l2.5625 0l0 2.4375l0.0625 0q0.9375 -1.421875 2.265625 -2.109375q1.328125 -0.703125 3.078125 -0.703125zm27.484375 0q3.546875 0 5.578125 2.4375q2.046875 2.4375 2.046875 6.265625q0 3.84375 -2.03125 6.234375q-2.03125 2.375 -5.515625 2.375q-1.546875 0 -3.03125 -0.640625q-1.46875 -0.640625 -2.328125 -1.953125l-0.0625 0l0 8.546875l-2.71875 0l0 -22.890625l2.71875 0l0 2.25l0.0625 0q0.640625 -1.28125 2.015625 -1.953125q1.390625 -0.671875 3.265625 -0.671875zm-5.4375 8.640625q0 2.875 1.390625 4.578125q1.390625 1.6875 3.828125 1.6875q2.359375 0 3.65625 -1.6875q1.296875 -1.6875 1.296875 -4.703125q0 -2.671875 -1.375 -4.390625q-1.359375 -1.734375 -3.765625 -1.734375q-2.390625 0 -3.71875 1.75q-1.3125 1.75 -1.3125 4.5zm23.390625 -8.640625q3.75 0 5.890625 2.421875q2.140625 2.421875 2.140625 6.25q0 3.859375 -2.1875 6.25q-2.1875 2.390625 -5.84375 2.390625q-3.59375 0 -5.8125 -2.34375q-2.21875 -2.359375 -2.21875 -6.296875q0 -3.9375 2.171875 -6.296875q2.171875 -2.375 5.859375 -2.375zm-5.15625 8.671875q0 2.84375 1.453125 4.546875q1.453125 1.6875 3.703125 1.6875q2.234375 0 3.6875 -1.703125q1.46875 -1.703125 1.46875 -4.53125q0 -2.828125 -1.453125 -4.546875q-1.453125 -1.734375 -3.734375 -1.734375q-2.1875 0 -3.65625 1.703125q-1.46875 1.6875 -1.46875 4.578125zm24.40625 -8.671875q2.984375 0 4.328125 1.53125q1.359375 1.53125 1.359375 4.375l0 11.015625l-2.71875 0l0 -11.296875q0 -1.40625 -0.90625 -2.3125q-0.890625 -0.921875 -2.484375 -0.921875q-2.296875 0 -3.59375 1.421875q-1.28125 1.40625 -1.28125 3.65625l0 9.453125l-2.71875 0l0 -16.546875l2.5625 0l0 2.625l0.0625 0q0.90625 -1.546875 2.21875 -2.265625q1.328125 -0.734375 3.171875 -0.734375zm16.65625 0q3.5625 0 5.53125 2.5625q1.96875 2.5625 1.96875 6.578125l0 0.328125l-12.390625 0l0 0.203125q0 2.359375 1.375 3.796875q1.375 1.4375 3.78125 1.4375q1.8125 0 2.875 -0.84375q1.078125 -0.84375 1.40625 -2.390625l2.6875 0q-0.546875 2.75 -2.40625 4.203125q-1.859375 1.4375 -4.65625 1.4375q-2.609375 0 -4.421875 -1.171875q-1.796875 -1.1875 -2.65625 -3.28125q-0.859375 -2.109375 -0.859375 -4.3125q0 -3.65625 2.203125 -6.09375q2.203125 -2.453125 5.5625 -2.453125zm-4.890625 7.0625l9.5 0q-0.125 -2.015625 -1.46875 -3.34375q-1.328125 -1.328125 -3.328125 -1.328125q-1.875 0 -3.203125 1.265625q-1.328125 1.265625 -1.5 3.40625zm23.21875 -7.0625q2.984375 0 4.328125 1.53125q1.359375 1.53125 1.359375 4.375l0 11.015625l-2.71875 0l0 -11.296875q0 -1.40625 -0.90625 -2.3125q-0.890625 -0.921875 -2.484375 -0.921875q-2.296875 0 -3.59375 1.421875q-1.28125 1.40625 -1.28125 3.65625l0 9.453125l-2.71875 0l0 -16.546875l2.5625 0l0 2.625l0.0625 0q0.90625 -1.546875 2.21875 -2.265625q1.328125 -0.734375 3.171875 -0.734375zm13.5625 -4.578125l0 4.953125l3.296875 0l0 2.40625l-3.296875 0l0 10.359375q0 1.234375 0.8125 1.3125q0.828125 0.0625 1.71875 0.0625l0.765625 0l0 2.40625l-2.25 0q-2.234375 0 -3.0 -0.796875q-0.765625 -0.796875 -0.765625 -2.671875l0 -10.671875l-2.828125 0l0 -2.40625l2.828125 0l0 -4.953125l2.71875 0zm11.796875 4.578125q3.34375 0 4.96875 1.296875q1.625 1.296875 1.78125 3.875l-2.71875 0l0 -0.03125q-0.109375 -1.3125 -1.15625 -2.03125q-1.03125 -0.71875 -2.671875 -0.71875q-1.640625 0 -2.59375 0.5625q-0.9375 0.546875 -0.9375 1.546875q0 0.90625 0.828125 1.484375q0.84375 0.578125 2.53125 0.9375l2.5625 0.578125q2.40625 0.53125 3.65625 1.640625q1.25 1.09375 1.25 2.953125q0 2.4375 -1.890625 3.828125q-1.890625 1.390625 -5.15625 1.390625q-3.171875 0 -5.03125 -1.421875q-1.859375 -1.421875 -1.984375 -4.1875l2.734375 0q0.046875 1.546875 1.21875 2.375q1.171875 0.828125 3.21875 0.828125q1.96875 0 2.984375 -0.625q1.015625 -0.625 1.015625 -1.84375q0 -1.109375 -1.015625 -1.75q-1.0 -0.65625 -4.125 -1.28125q-3.125 -0.609375 -4.40625 -1.71875q-1.265625 -1.125 -1.265625 -2.984375q0 -2.171875 1.765625 -3.4375q1.765625 -1.265625 4.4375 -1.265625z" fill-rule="nonzero"></path><path fill="#25b89a" d="m416.94965 405.708l0 0c0 -8.187317 6.637146 -14.824432 14.824463 -14.824432l212.24084 0c3.9317017 0 7.7023926 1.5618286 10.482483 4.3419495c2.7801514 2.7801514 4.34198 6.5507812 4.34198 10.482483l0 59.29599c0 8.187317 -6.637146 14.824432 -14.824463 14.824432l-212.24084 0c-8.187317 0 -14.824463 -6.6371155 -14.824463 -14.824432z" fill-rule="evenodd"></path><path stroke="#2280c3" stroke-width="4.0" stroke-linejoin="round" stroke-linecap="butt" d="m416.94965 405.708l0 0c0 -8.187317 6.637146 -14.824432 14.824463 -14.824432l212.24084 0c3.9317017 0 7.7023926 1.5618286 10.482483 4.3419495c2.7801514 2.7801514 4.34198 6.5507812 4.34198 10.482483l0 59.29599c0 8.187317 -6.637146 14.824432 -14.824463 14.824432l-212.24084 0c-8.187317 0 -14.824463 -6.6371155 -14.824463 -14.824432z" fill-rule="evenodd"></path><path fill="#ffffff" d="m499.85925 417.38538q2.25 0 3.765625 1.171875q1.53125 1.171875 1.828125 3.234375l-1.8125 0q-0.296875 -1.390625 -1.296875 -2.125q-1.0 -0.75 -2.5 -0.75q-2.15625 0 -3.375 1.515625q-1.21875 1.515625 -1.21875 3.96875q0 2.59375 1.1875 4.140625q1.203125 1.53125 3.421875 1.53125q1.65625 0 2.71875 -1.046875q1.0625 -1.046875 1.203125 -2.859375l1.796875 0q-0.296875 2.625 -1.828125 4.03125q-1.53125 1.40625 -4.03125 1.40625q-2.921875 0 -4.609375 -1.921875q-1.671875 -1.9375 -1.671875 -5.15625q0 -3.15625 1.734375 -5.140625q1.734375 -2.0 4.6875 -2.0zm11.691711 3.84375q2.234375 0 3.5 1.4375q1.265625 1.4375 1.265625 3.703125q0 2.296875 -1.296875 3.71875q-1.296875 1.421875 -3.46875 1.421875q-2.125 0 -3.453125 -1.390625q-1.3125 -1.40625 -1.3125 -3.75q0 -2.328125 1.28125 -3.734375q1.296875 -1.40625 3.484375 -1.40625zm-3.0625 5.140625q0 1.703125 0.859375 2.703125q0.875 1.0 2.203125 1.0q1.328125 0 2.1875 -1.0q0.875 -1.015625 0.875 -2.703125q0 -1.671875 -0.859375 -2.6875q-0.859375 -1.03125 -2.21875 -1.03125q-1.296875 0 -2.171875 1.015625q-0.875 1.0 -0.875 2.703125zm14.290894 -5.140625q1.78125 0 2.578125 0.90625q0.8125 0.90625 0.8125 2.59375l0 6.546875l-1.625 0l0 -6.703125q0 -0.84375 -0.53125 -1.375q-0.53125 -0.546875 -1.484375 -0.546875q-1.359375 0 -2.125 0.84375q-0.765625 0.828125 -0.765625 2.171875l0 5.609375l-1.609375 0l0 -9.828125l1.515625 0l0 1.5625l0.046875 0q0.53125 -0.921875 1.3125 -1.34375q0.78125 -0.4375 1.875 -0.4375zm7.8601074 -2.71875l0 2.9375l1.96875 0l0 1.4375l-1.96875 0l0 6.140625q0 0.734375 0.484375 0.78125q0.5 0.046875 1.03125 0.046875l0.453125 0l0 1.421875l-1.34375 0q-1.328125 0 -1.78125 -0.46875q-0.453125 -0.484375 -0.453125 -1.59375l0 -6.328125l-1.671875 0l0 -1.4375l1.671875 0l0 -2.9375l1.609375 0zm7.6568604 2.71875q2.0 0 2.84375 0.71875q0.84375 0.703125 0.84375 1.90625q0 5.109375 0 5.671875q0 0.546875 0.5 0.546875q0.109375 0 0.234375 -0.015625q0.140625 -0.03125 0.265625 -0.078125l0 1.265625q-0.234375 0.125 -0.53125 0.1875q-0.28125 0.078125 -0.625 0.078125q-0.671875 0 -1.03125 -0.375q-0.34375 -0.375 -0.34375 -1.15625q-0.640625 0.765625 -1.515625 1.15625q-0.859375 0.375 -1.9375 0.375q-1.53125 0 -2.390625 -0.71875q-0.859375 -0.71875 -0.859375 -2.046875q0 -1.3125 0.84375 -2.09375q0.84375 -0.78125 3.96875 -1.171875q1.0625 -0.125 1.4375 -0.390625q0.375 -0.28125 0.375 -0.8125q0 -0.828125 -0.53125 -1.21875q-0.515625 -0.40625 -1.65625 -0.40625q-1.203125 0 -1.796875 0.453125q-0.59375 0.453125 -0.640625 1.40625l-1.625 0q0.078125 -1.625 1.15625 -2.453125q1.078125 -0.828125 3.015625 -0.828125zm-2.84375 7.40625q0 0.6875 0.5 1.0625q0.5 0.375 1.40625 0.375q1.359375 0 2.171875 -0.671875q0.828125 -0.671875 0.828125 -1.515625l0 -1.6875q-0.40625 0.296875 -1.0625 0.40625q-0.65625 0.09375 -1.71875 0.234375q-1.078125 0.15625 -1.609375 0.59375q-0.515625 0.421875 -0.515625 1.203125zm10.551697 -10.921875l0 1.96875l-1.609375 0l0 -1.96875l1.609375 0zm0 3.734375l0 9.828125l-1.609375 0l0 -9.828125l1.609375 0zm7.1917114 -0.21875q1.78125 0 2.578125 0.90625q0.8125 0.90625 0.8125 2.59375l0 6.546875l-1.625 0l0 -6.703125q0 -0.84375 -0.53125 -1.375q-0.53125 -0.546875 -1.484375 -0.546875q-1.359375 0 -2.125 0.84375q-0.765625 0.828125 -0.765625 2.171875l0 5.609375l-1.609375 0l0 -9.828125l1.515625 0l0 1.5625l0.046875 0q0.53125 -0.921875 1.3125 -1.34375q0.78125 -0.4375 1.875 -0.4375zm9.703796 0q2.109375 0 3.28125 1.53125q1.171875 1.515625 1.171875 3.890625l0 0.203125l-7.359375 0l0 0.109375q0 1.40625 0.8125 2.265625q0.828125 0.84375 2.25 0.84375q1.078125 0 1.703125 -0.5q0.640625 -0.5 0.84375 -1.421875l1.59375 0q-0.328125 1.640625 -1.4375 2.5q-1.09375 0.859375 -2.75 0.859375q-1.5625 0 -2.640625 -0.703125q-1.0625 -0.703125 -1.578125 -1.953125q-0.5 -1.25 -0.5 -2.546875q0 -2.171875 1.296875 -3.625q1.3125 -1.453125 3.3125 -1.453125zm-2.90625 4.1875l5.640625 0q-0.078125 -1.1875 -0.875 -1.96875q-0.78125 -0.796875 -1.96875 -0.796875q-1.109375 0 -1.90625 0.75q-0.78125 0.75 -0.890625 2.015625zm13.739197 -4.203125q0.046875 0 0.09375 0q0.046875 0 0.125 0.015625l0 1.703125q-1.8125 0 -2.6875 0.96875q-0.859375 0.96875 -0.859375 2.984375l0 4.390625l-1.625 0l0 -9.828125l1.53125 0l0 2.078125l0.03125 0q0.5625 -1.171875 1.390625 -1.734375q0.828125 -0.578125 2.0 -0.578125zm4.5877075 0.015625q1.984375 0 2.9375 0.78125q0.96875 0.765625 1.0625 2.28125l-1.609375 0l0 -0.015625q-0.0625 -0.78125 -0.6875 -1.203125q-0.609375 -0.421875 -1.578125 -0.421875q-0.984375 0 -1.546875 0.328125q-0.5625 0.328125 -0.5625 0.921875q0 0.53125 0.5 0.875q0.5 0.34375 1.5 0.5625l1.515625 0.34375q1.4375 0.3125 2.171875 0.96875q0.75 0.65625 0.75 1.765625q0 1.4375 -1.125 2.265625q-1.125 0.828125 -3.0625 0.828125q-1.890625 0 -3.0 -0.84375q-1.09375 -0.84375 -1.171875 -2.484375l1.625 0q0.03125 0.90625 0.71875 1.40625q0.703125 0.484375 1.921875 0.484375q1.171875 0 1.765625 -0.359375q0.609375 -0.375 0.609375 -1.09375q0 -0.671875 -0.609375 -1.046875q-0.59375 -0.390625 -2.4375 -0.765625q-1.859375 -0.359375 -2.625 -1.015625q-0.75 -0.671875 -0.75 -1.765625q0 -1.296875 1.046875 -2.046875q1.046875 -0.75 2.640625 -0.75z" fill-rule="nonzero"></path><path fill="#ffffff" d="m456.6049 439.38538q-1.28125 2.0 -1.890625 4.125q-0.609375 2.125 -0.609375 4.640625q0 2.53125 0.609375 4.6875q0.609375 2.140625 1.890625 4.203125l-1.234375 0q-1.625 -2.546875 -2.3125 -4.640625q-0.671875 -2.109375 -0.671875 -4.25q0 -2.234375 0.75 -4.515625q0.765625 -2.296875 2.234375 -4.25l1.234375 0zm5.7655334 0q2.25 0 3.578125 1.09375q1.328125 1.09375 1.421875 3.203125l-1.71875 0q-0.15625 -1.390625 -1.0 -2.078125q-0.84375 -0.6875 -2.359375 -0.6875q-1.453125 0 -2.25 0.59375q-0.796875 0.59375 -0.796875 1.703125q0 0.796875 0.671875 1.3125q0.6875 0.515625 3.6875 1.109375q2.171875 0.453125 3.25 1.375q1.078125 0.90625 1.078125 2.546875q0 1.890625 -1.546875 2.96875q-1.546875 1.078125 -3.765625 1.078125q-2.453125 0 -4.015625 -1.234375q-1.5625 -1.234375 -1.578125 -3.5625l1.703125 0q0.03125 1.5625 1.109375 2.421875q1.09375 0.84375 2.84375 0.84375q1.640625 0 2.546875 -0.625q0.90625 -0.640625 0.90625 -1.84375q0 -0.953125 -0.828125 -1.53125q-0.828125 -0.59375 -3.0 -1.015625q-2.890625 -0.546875 -3.875 -1.40625q-0.984375 -0.875 -0.984375 -2.296875q0 -1.828125 1.375 -2.890625q1.390625 -1.078125 3.546875 -1.078125zm11.994537 3.84375q1.0625 0 1.75 0.4375q0.6875 0.4375 0.9375 1.234375q0.5 -0.796875 1.3125 -1.234375q0.8125 -0.4375 1.78125 -0.4375q1.65625 0 2.453125 0.75q0.8125 0.75 0.8125 2.03125l0 7.265625l-1.625 0l0 -6.515625q0 -1.0625 -0.453125 -1.578125q-0.4375 -0.53125 -1.453125 -0.53125q-1.203125 0 -1.875 0.703125q-0.671875 0.703125 -0.671875 1.75l0 6.171875l-1.625 0l0 -6.515625q0 -1.0625 -0.453125 -1.578125q-0.4375 -0.53125 -1.390625 -0.53125q-0.765625 0 -1.359375 0.375q-0.59375 0.359375 -0.9375 1.015625q-0.328125 0.640625 -0.328125 1.078125l0 6.15625l-1.609375 0l0 -9.828125l1.515625 0l0 1.453125l0.046875 0q0.546875 -0.84375 1.328125 -1.25q0.796875 -0.421875 1.84375 -0.421875zm15.195557 0q2.0 0 2.84375 0.71875q0.84375 0.703125 0.84375 1.90625q0 5.109375 0 5.671875q0 0.546875 0.5 0.546875q0.109375 0 0.234375 -0.015625q0.140625 -0.03125 0.265625 -0.078125l0 1.265625q-0.234375 0.125 -0.53125 0.1875q-0.28125 0.078125 -0.625 0.078125q-0.671875 0 -1.03125 -0.375q-0.34375 -0.375 -0.34375 -1.15625q-0.640625 0.765625 -1.515625 1.15625q-0.859375 0.375 -1.9375 0.375q-1.53125 0 -2.390625 -0.71875q-0.859375 -0.71875 -0.859375 -2.046875q0 -1.3125 0.84375 -2.09375q0.84375 -0.78125 3.96875 -1.171875q1.0625 -0.125 1.4375 -0.390625q0.375 -0.28125 0.375 -0.8125q0 -0.828125 -0.53125 -1.21875q-0.515625 -0.40625 -1.65625 -0.40625q-1.203125 0 -1.796875 0.453125q-0.59375 0.453125 -0.640625 1.40625l-1.625 0q0.078125 -1.625 1.15625 -2.453125q1.078125 -0.828125 3.015625 -0.828125zm-2.84375 7.40625q0 0.6875 0.5 1.0625q0.5 0.375 1.40625 0.375q1.359375 0 2.171875 -0.671875q0.828125 -0.671875 0.828125 -1.515625l0 -1.6875q-0.40625 0.296875 -1.0625 0.40625q-0.65625 0.09375 -1.71875 0.234375q-1.078125 0.15625 -1.609375 0.59375q-0.515625 0.421875 -0.515625 1.203125zm13.739197 -7.421875q0.046875 0 0.09375 0q0.046875 0 0.125 0.015625l0 1.703125q-1.8125 0 -2.6875 0.96875q-0.859375 0.96875 -0.859375 2.984375l0 4.390625l-1.625 0l0 -9.828125l1.53125 0l0 2.078125l0.03125 0q0.5625 -1.171875 1.390625 -1.734375q0.828125 -0.578125 2.0 -0.578125zm3.556427 -2.703125l0 2.9375l1.96875 0l0 1.4375l-1.96875 0l0 6.140625q0 0.734375 0.484375 0.78125q0.5 0.046875 1.03125 0.046875l0.453125 0l0 1.421875l-1.34375 0q-1.328125 0 -1.78125 -0.46875q-0.453125 -0.484375 -0.453125 -1.59375l0 -6.328125l-1.671875 0l0 -1.4375l1.671875 0l0 -2.9375l1.609375 0zm14.840149 -1.125q2.25 0 3.765625 1.171875q1.53125 1.171875 1.828125 3.234375l-1.8125 0q-0.296875 -1.390625 -1.296875 -2.125q-1.0 -0.75 -2.5 -0.75q-2.15625 0 -3.375 1.515625q-1.21875 1.515625 -1.21875 3.96875q0 2.59375 1.1875 4.140625q1.203125 1.53125 3.421875 1.53125q1.65625 0 2.71875 -1.046875q1.0625 -1.046875 1.203125 -2.859375l1.796875 0q-0.296875 2.625 -1.828125 4.03125q-1.53125 1.40625 -4.03125 1.40625q-2.921875 0 -4.609375 -1.921875q-1.671875 -1.9375 -1.671875 -5.15625q0 -3.15625 1.734375 -5.140625q1.734375 -2.0 4.6875 -2.0zm11.691711 3.84375q2.234375 0 3.5 1.4375q1.265625 1.4375 1.265625 3.703125q0 2.296875 -1.296875 3.71875q-1.296875 1.421875 -3.46875 1.421875q-2.125 0 -3.453125 -1.390625q-1.3125 -1.40625 -1.3125 -3.75q0 -2.328125 1.28125 -3.734375q1.296875 -1.40625 3.484375 -1.40625zm-3.0625 5.140625q0 1.703125 0.859375 2.703125q0.875 1.0 2.203125 1.0q1.328125 0 2.1875 -1.0q0.875 -1.015625 0.875 -2.703125q0 -1.671875 -0.859375 -2.6875q-0.859375 -1.03125 -2.21875 -1.03125q-1.296875 0 -2.171875 1.015625q-0.875 1.0 -0.875 2.703125zm14.275269 -5.140625q1.0625 0 1.75 0.4375q0.6875 0.4375 0.9375 1.234375q0.5 -0.796875 1.3125 -1.234375q0.8125 -0.4375 1.78125 -0.4375q1.65625 0 2.453125 0.75q0.8125 0.75 0.8125 2.03125l0 7.265625l-1.625 0l0 -6.515625q0 -1.0625 -0.453125 -1.578125q-0.4375 -0.53125 -1.453125 -0.53125q-1.203125 0 -1.875 0.703125q-0.671875 0.703125 -0.671875 1.75l0 6.171875l-1.625 0l0 -6.515625q0 -1.0625 -0.453125 -1.578125q-0.4375 -0.53125 -1.390625 -0.53125q-0.765625 0 -1.359375 0.375q-0.59375 0.359375 -0.9375 1.015625q-0.328125 0.640625 -0.328125 1.078125l0 6.15625l-1.609375 0l0 -9.828125l1.515625 0l0 1.453125l0.046875 0q0.546875 -0.84375 1.328125 -1.25q0.796875 -0.421875 1.84375 -0.421875zm16.023682 0q2.109375 0 3.3125 1.453125q1.203125 1.4375 1.203125 3.71875q0 2.28125 -1.203125 3.703125q-1.203125 1.40625 -3.265625 1.40625q-0.921875 0 -1.796875 -0.375q-0.875 -0.390625 -1.390625 -1.171875l-0.03125 0l0 5.078125l-1.625 0l0 -13.59375l1.625 0l0 1.34375l0.03125 0q0.375 -0.765625 1.1875 -1.15625q0.828125 -0.40625 1.953125 -0.40625zm-3.234375 5.125q0 1.71875 0.828125 2.71875q0.828125 1.0 2.265625 1.0q1.40625 0 2.171875 -1.0q0.78125 -1.0 0.78125 -2.78125q0 -1.59375 -0.8125 -2.609375q-0.8125 -1.03125 -2.25 -1.03125q-1.421875 0 -2.203125 1.046875q-0.78125 1.03125 -0.78125 2.65625zm13.683899 -5.125q2.234375 0 3.5 1.4375q1.265625 1.4375 1.265625 3.703125q0 2.296875 -1.296875 3.71875q-1.296875 1.421875 -3.46875 1.421875q-2.125 0 -3.453125 -1.390625q-1.3125 -1.40625 -1.3125 -3.75q0 -2.328125 1.28125 -3.734375q1.296875 -1.40625 3.484375 -1.40625zm-3.0625 5.140625q0 1.703125 0.859375 2.703125q0.875 1.0 2.203125 1.0q1.328125 0 2.1875 -1.0q0.875 -1.015625 0.875 -2.703125q0 -1.671875 -0.859375 -2.6875q-0.859375 -1.03125 -2.21875 -1.03125q-1.296875 0 -2.171875 1.015625q-0.875 1.0 -0.875 2.703125zm14.290894 -5.140625q1.78125 0 2.578125 0.90625q0.8125 0.90625 0.8125 2.59375l0 6.546875l-1.625 0l0 -6.703125q0 -0.84375 -0.53125 -1.375q-0.53125 -0.546875 -1.484375 -0.546875q-1.359375 0 -2.125 0.84375q-0.765625 0.828125 -0.765625 2.171875l0 5.609375l-1.609375 0l0 -9.828125l1.515625 0l0 1.5625l0.046875 0q0.53125 -0.921875 1.3125 -1.34375q0.78125 -0.4375 1.875 -0.4375zm9.703857 0q2.109375 0 3.28125 1.53125q1.171875 1.515625 1.171875 3.890625l0 0.203125l-7.359375 0l0 0.109375q0 1.40625 0.8125 2.265625q0.828125 0.84375 2.25 0.84375q1.078125 0 1.703125 -0.5q0.640625 -0.5 0.84375 -1.421875l1.59375 0q-0.328125 1.640625 -1.4375 2.5q-1.09375 0.859375 -2.75 0.859375q-1.5625 0 -2.640625 -0.703125q-1.0625 -0.703125 -1.578125 -1.953125q-0.5 -1.25 -0.5 -2.546875q0 -2.171875 1.296875 -3.625q1.3125 -1.453125 3.3125 -1.453125zm-2.90625 4.1875l5.640625 0q-0.078125 -1.1875 -0.875 -1.96875q-0.78125 -0.796875 -1.96875 -0.796875q-1.109375 0 -1.90625 0.75q-0.78125 0.75 -0.890625 2.015625zm13.598572 -4.1875q1.78125 0 2.578125 0.90625q0.8125 0.90625 0.8125 2.59375l0 6.546875l-1.625 0l0 -6.703125q0 -0.84375 -0.53125 -1.375q-0.53125 -0.546875 -1.484375 -0.546875q-1.359375 0 -2.125 0.84375q-0.765625 0.828125 -0.765625 2.171875l0 5.609375l-1.609375 0l0 -9.828125l1.515625 0l0 1.5625l0.046875 0q0.53125 -0.921875 1.3125 -1.34375q0.78125 -0.4375 1.875 -0.4375zm7.8601074 -2.71875l0 2.9375l1.96875 0l0 1.4375l-1.96875 0l0 6.140625q0 0.734375 0.484375 0.78125q0.5 0.046875 1.03125 0.046875l0.453125 0l0 1.421875l-1.34375 0q-1.328125 0 -1.78125 -0.46875q-0.453125 -0.484375 -0.453125 -1.59375l0 -6.328125l-1.671875 0l0 -1.4375l1.671875 0l0 -2.9375l1.609375 0zm6.9068604 2.71875q1.984375 0 2.9375 0.78125q0.96875 0.765625 1.0625 2.28125l-1.609375 0l0 -0.015625q-0.0625 -0.78125 -0.6875 -1.203125q-0.609375 -0.421875 -1.578125 -0.421875q-0.984375 0 -1.546875 0.328125q-0.5625 0.328125 -0.5625 0.921875q0 0.53125 0.5 0.875q0.5 0.34375 1.5 0.5625l1.515625 0.34375q1.4375 0.3125 2.171875 0.96875q0.75 0.65625 0.75 1.765625q0 1.4375 -1.125 2.265625q-1.125 0.828125 -3.0625 0.828125q-1.890625 0 -3.0 -0.84375q-1.09375 -0.84375 -1.171875 -2.484375l1.625 0q0.03125 0.90625 0.71875 1.40625q0.703125 0.484375 1.921875 0.484375q1.171875 0 1.765625 -0.359375q0.609375 -0.375 0.609375 -1.09375q0 -0.671875 -0.609375 -1.046875q-0.59375 -0.390625 -2.4375 -0.765625q-1.859375 -0.359375 -2.625 -1.015625q-0.75 -0.671875 -0.75 -1.765625q0 -1.296875 1.046875 -2.046875q1.046875 -0.75 2.640625 -0.75zm5.890625 -3.84375q1.515625 2.34375 2.25 4.484375q0.734375 2.125 0.734375 4.40625q0 2.3125 -0.78125 4.5625q-0.765625 2.25 -2.203125 4.203125l-1.234375 0q1.265625 -2.015625 1.875 -4.140625q0.625 -2.125 0.625 -4.625q0 -2.53125 -0.625 -4.6875q-0.609375 -2.15625 -1.875 -4.203125l1.234375 0z" fill-rule="nonzero"></path><path fill="#34495d" d="m668.40375 405.708l0 0c0 -8.187317 6.637085 -14.824432 14.824402 -14.824432l212.2409 0c3.9317017 0 7.7023315 1.5618286 10.482422 4.3419495c2.7801514 2.7801514 4.34198 6.5507812 4.34198 10.482483l0 59.29599c0 8.187317 -6.637085 14.824432 -14.824402 14.824432l-212.2409 0c-8.187317 0 -14.824402 -6.6371155 -14.824402 -14.824432z" fill-rule="evenodd"></path><path stroke="#2280c3" stroke-width="4.0" stroke-linejoin="round" stroke-linecap="butt" d="m668.40375 405.708l0 0c0 -8.187317 6.637085 -14.824432 14.824402 -14.824432l212.2409 0c3.9317017 0 7.7023315 1.5618286 10.482422 4.3419495c2.7801514 2.7801514 4.34198 6.5507812 4.34198 10.482483l0 59.29599c0 8.187317 -6.637085 14.824432 -14.824402 14.824432l-212.2409 0c-8.187317 0 -14.824402 -6.6371155 -14.824402 -14.824432z" fill-rule="evenodd"></path><path fill="#ffffff" d="m739.6748 417.7135q1.859375 0 2.96875 1.015625q1.109375 1.0 1.109375 2.984375q0 2.0 -1.109375 3.015625q-1.109375 1.0 -2.84375 1.0l-4.359375 0l0 5.546875l-1.796875 0l0 -13.5625l6.03125 0zm-0.5 6.5q1.28125 0 2.015625 -0.609375q0.75 -0.609375 0.75 -1.890625q0 -1.25 -0.734375 -1.859375q-0.71875 -0.625 -2.140625 -0.625l-3.625 0l0 4.984375l3.734375 0zm11.182068 -3.0q0.046875 0 0.09375 0q0.046875 0 0.125 0.015625l0 1.703125q-1.8125 0 -2.6875 0.96875q-0.859375 0.96875 -0.859375 2.984375l0 4.390625l-1.625 0l0 -9.828125l1.53125 0l0 2.078125l0.03125 0q0.5625 -1.171875 1.390625 -1.734375q0.828125 -0.578125 2.0 -0.578125zm5.4001465 0.015625q2.109375 0 3.28125 1.53125q1.171875 1.515625 1.171875 3.890625l0 0.203125l-7.359375 0l0 0.109375q0 1.40625 0.8125 2.265625q0.828125 0.84375 2.25 0.84375q1.078125 0 1.703125 -0.5q0.640625 -0.5 0.84375 -1.421875l1.59375 0q-0.328125 1.640625 -1.4375 2.5q-1.09375 0.859375 -2.75 0.859375q-1.5625 0 -2.640625 -0.703125q-1.0625 -0.703125 -1.578125 -1.953125q-0.5 -1.25 -0.5 -2.546875q0 -2.171875 1.296875 -3.625q1.3125 -1.453125 3.3125 -1.453125zm-2.90625 4.1875l5.640625 0q-0.078125 -1.1875 -0.875 -1.96875q-0.78125 -0.796875 -1.96875 -0.796875q-1.109375 0 -1.90625 0.75q-0.78125 0.75 -0.890625 2.015625zm12.114197 -4.1875q1.984375 0 2.9375 0.78125q0.96875 0.765625 1.0625 2.28125l-1.609375 0l0 -0.015625q-0.0625 -0.78125 -0.6875 -1.203125q-0.609375 -0.421875 -1.578125 -0.421875q-0.984375 0 -1.546875 0.328125q-0.5625 0.328125 -0.5625 0.921875q0 0.53125 0.5 0.875q0.5 0.34375 1.5 0.5625l1.515625 0.34375q1.4375 0.3125 2.171875 0.96875q0.75 0.65625 0.75 1.765625q0 1.4375 -1.125 2.265625q-1.125 0.828125 -3.0625 0.828125q-1.890625 0 -3.0 -0.84375q-1.09375 -0.84375 -1.171875 -2.484375l1.625 0q0.03125 0.90625 0.71875 1.40625q0.703125 0.484375 1.921875 0.484375q1.171875 0 1.765625 -0.359375q0.609375 -0.375 0.609375 -1.09375q0 -0.671875 -0.609375 -1.046875q-0.59375 -0.390625 -2.4375 -0.765625q-1.859375 -0.359375 -2.625 -1.015625q-0.75 -0.671875 -0.75 -1.765625q0 -1.296875 1.046875 -2.046875q1.046875 -0.75 2.640625 -0.75zm10.140625 0q2.109375 0 3.28125 1.53125q1.171875 1.515625 1.171875 3.890625l0 0.203125l-7.359375 0l0 0.109375q0 1.40625 0.8125 2.265625q0.828125 0.84375 2.25 0.84375q1.078125 0 1.703125 -0.5q0.640625 -0.5 0.84375 -1.421875l1.59375 0q-0.328125 1.640625 -1.4375 2.5q-1.09375 0.859375 -2.75 0.859375q-1.5625 0 -2.640625 -0.703125q-1.0625 -0.703125 -1.578125 -1.953125q-0.5 -1.25 -0.5 -2.546875q0 -2.171875 1.296875 -3.625q1.3125 -1.453125 3.3125 -1.453125zm-2.90625 4.1875l5.640625 0q-0.078125 -1.1875 -0.875 -1.96875q-0.78125 -0.796875 -1.96875 -0.796875q-1.109375 0 -1.90625 0.75q-0.78125 0.75 -0.890625 2.015625zm13.598572 -4.1875q1.78125 0 2.578125 0.90625q0.8125 0.90625 0.8125 2.59375l0 6.546875l-1.625 0l0 -6.703125q0 -0.84375 -0.53125 -1.375q-0.53125 -0.546875 -1.484375 -0.546875q-1.359375 0 -2.125 0.84375q-0.765625 0.828125 -0.765625 2.171875l0 5.609375l-1.609375 0l0 -9.828125l1.515625 0l0 1.5625l0.046875 0q0.53125 -0.921875 1.3125 -1.34375q0.78125 -0.4375 1.875 -0.4375zm7.8601074 -2.71875l0 2.9375l1.96875 0l0 1.4375l-1.96875 0l0 6.140625q0 0.734375 0.484375 0.78125q0.5 0.046875 1.03125 0.046875l0.453125 0l0 1.421875l-1.34375 0q-1.328125 0 -1.78125 -0.46875q-0.453125 -0.484375 -0.453125 -1.59375l0 -6.328125l-1.671875 0l0 -1.4375l1.671875 0l0 -2.9375l1.609375 0zm7.6568604 2.71875q2.0 0 2.84375 0.71875q0.84375 0.703125 0.84375 1.90625q0 5.109375 0 5.671875q0 0.546875 0.5 0.546875q0.109375 0 0.234375 -0.015625q0.140625 -0.03125 0.265625 -0.078125l0 1.265625q-0.234375 0.125 -0.53125 0.1875q-0.28125 0.078125 -0.625 0.078125q-0.671875 0 -1.03125 -0.375q-0.34375 -0.375 -0.34375 -1.15625q-0.640625 0.765625 -1.515625 1.15625q-0.859375 0.375 -1.9375 0.375q-1.53125 0 -2.390625 -0.71875q-0.859375 -0.71875 -0.859375 -2.046875q0 -1.3125 0.84375 -2.09375q0.84375 -0.78125 3.96875 -1.171875q1.0625 -0.125 1.4375 -0.390625q0.375 -0.28125 0.375 -0.8125q0 -0.828125 -0.53125 -1.21875q-0.515625 -0.40625 -1.65625 -0.40625q-1.203125 0 -1.796875 0.453125q-0.59375 0.453125 -0.640625 1.40625l-1.625 0q0.078125 -1.625 1.15625 -2.453125q1.078125 -0.828125 3.015625 -0.828125zm-2.84375 7.40625q0 0.6875 0.5 1.0625q0.5 0.375 1.40625 0.375q1.359375 0 2.171875 -0.671875q0.828125 -0.671875 0.828125 -1.515625l0 -1.6875q-0.40625 0.296875 -1.0625 0.40625q-0.65625 0.09375 -1.71875 0.234375q-1.078125 0.15625 -1.609375 0.59375q-0.515625 0.421875 -0.515625 1.203125zm11.082947 -10.125l0 2.9375l1.96875 0l0 1.4375l-1.96875 0l0 6.140625q0 0.734375 0.484375 0.78125q0.5 0.046875 1.03125 0.046875l0.453125 0l0 1.421875l-1.34375 0q-1.328125 0 -1.78125 -0.46875q-0.453125 -0.484375 -0.453125 -1.59375l0 -6.328125l-1.671875 0l0 -1.4375l1.671875 0l0 -2.9375l1.609375 0zm5.3444214 -0.796875l0 1.96875l-1.609375 0l0 -1.96875l1.609375 0zm0 3.734375l0 9.828125l-1.609375 0l0 -9.828125l1.609375 0zm6.6760254 -0.21875q2.234375 0 3.5 1.4375q1.265625 1.4375 1.265625 3.703125q0 2.296875 -1.296875 3.71875q-1.296875 1.421875 -3.46875 1.421875q-2.125 0 -3.453125 -1.390625q-1.3125 -1.40625 -1.3125 -3.75q0 -2.328125 1.28125 -3.734375q1.296875 -1.40625 3.484375 -1.40625zm-3.0625 5.140625q0 1.703125 0.859375 2.703125q0.875 1.0 2.203125 1.0q1.328125 0 2.1875 -1.0q0.875 -1.015625 0.875 -2.703125q0 -1.671875 -0.859375 -2.6875q-0.859375 -1.03125 -2.21875 -1.03125q-1.296875 0 -2.171875 1.015625q-0.875 1.0 -0.875 2.703125zm14.290894 -5.140625q1.78125 0 2.578125 0.90625q0.8125 0.90625 0.8125 2.59375l0 6.546875l-1.625 0l0 -6.703125q0 -0.84375 -0.53125 -1.375q-0.53125 -0.546875 -1.484375 -0.546875q-1.359375 0 -2.125 0.84375q-0.765625 0.828125 -0.765625 2.171875l0 5.609375l-1.609375 0l0 -9.828125l1.515625 0l0 1.5625l0.046875 0q0.53125 -0.921875 1.3125 -1.34375q0.78125 -0.4375 1.875 -0.4375zm8.891357 0q1.984375 0 2.9375 0.78125q0.96875 0.765625 1.0625 2.28125l-1.609375 0l0 -0.015625q-0.0625 -0.78125 -0.6875 -1.203125q-0.609375 -0.421875 -1.578125 -0.421875q-0.984375 0 -1.546875 0.328125q-0.5625 0.328125 -0.5625 0.921875q0 0.53125 0.5 0.875q0.5 0.34375 1.5 0.5625l1.515625 0.34375q1.4375 0.3125 2.171875 0.96875q0.75 0.65625 0.75 1.765625q0 1.4375 -1.125 2.265625q-1.125 0.828125 -3.0625 0.828125q-1.890625 0 -3.0 -0.84375q-1.09375 -0.84375 -1.171875 -2.484375l1.625 0q0.03125 0.90625 0.71875 1.40625q0.703125 0.484375 1.921875 0.484375q1.171875 0 1.765625 -0.359375q0.609375 -0.375 0.609375 -1.09375q0 -0.671875 -0.609375 -1.046875q-0.59375 -0.390625 -2.4375 -0.765625q-1.859375 -0.359375 -2.625 -1.015625q-0.75 -0.671875 -0.75 -1.765625q0 -1.296875 1.046875 -2.046875q1.046875 -0.75 2.640625 -0.75z" fill-rule="nonzero"></path><path fill="#ffffff" d="m707.8722 439.38538q-1.28125 2.0 -1.890625 4.125q-0.609375 2.125 -0.609375 4.640625q0 2.53125 0.609375 4.6875q0.609375 2.140625 1.890625 4.203125l-1.234375 0q-1.625 -2.546875 -2.3125 -4.640625q-0.671875 -2.109375 -0.671875 -4.25q0 -2.234375 0.75 -4.515625q0.765625 -2.296875 2.234375 -4.25l1.234375 0zm5.968689 0.328125q3.078125 0 4.734375 1.640625q1.671875 1.625 1.671875 4.828125q0 3.578125 -1.65625 5.34375q-1.640625 1.75 -4.75 1.75l-4.765625 0l0 -13.5625l4.765625 0zm0.109375 12.046875q2.03125 0 3.25 -1.328125q1.234375 -1.328125 1.234375 -4.015625q0 -2.6875 -1.125 -3.9375q-1.109375 -1.25 -3.296875 -1.25l-3.140625 0l0 10.53125l3.078125 0zm9.604614 -8.3125l0 6.703125q0 0.828125 0.53125 1.375q0.53125 0.546875 1.46875 0.546875q1.390625 0 2.140625 -0.84375q0.765625 -0.84375 0.765625 -2.171875l0 -5.609375l1.625 0l0 9.828125l-1.53125 0l0 -1.5625l-0.03125 0q-0.546875 0.9375 -1.359375 1.375q-0.796875 0.421875 -1.84375 0.421875q-1.71875 0 -2.546875 -0.890625q-0.828125 -0.890625 -0.828125 -2.625l0 -6.546875l1.609375 0zm13.500732 -0.21875q1.0625 0 1.75 0.4375q0.6875 0.4375 0.9375 1.234375q0.5 -0.796875 1.3125 -1.234375q0.8125 -0.4375 1.78125 -0.4375q1.65625 0 2.453125 0.75q0.8125 0.75 0.8125 2.03125l0 7.265625l-1.625 0l0 -6.515625q0 -1.0625 -0.453125 -1.578125q-0.4375 -0.53125 -1.453125 -0.53125q-1.203125 0 -1.875 0.703125q-0.671875 0.703125 -0.671875 1.75l0 6.171875l-1.625 0l0 -6.515625q0 -1.0625 -0.453125 -1.578125q-0.4375 -0.53125 -1.390625 -0.53125q-0.765625 0 -1.359375 0.375q-0.59375 0.359375 -0.9375 1.015625q-0.328125 0.640625 -0.328125 1.078125l0 6.15625l-1.609375 0l0 -9.828125l1.515625 0l0 1.453125l0.046875 0q0.546875 -0.84375 1.328125 -1.25q0.796875 -0.421875 1.84375 -0.421875zm12.851807 -3.515625l0 5.078125l0.03125 0q0.375 -0.765625 1.1875 -1.15625q0.8125 -0.40625 1.953125 -0.40625q2.109375 0 3.3125 1.453125q1.203125 1.4375 1.203125 3.71875q0 2.28125 -1.203125 3.703125q-1.203125 1.40625 -3.265625 1.40625q-0.921875 0 -1.796875 -0.375q-0.875 -0.390625 -1.390625 -1.171875l-0.03125 0l0 1.3125l-1.625 0l0 -13.5625l1.625 0zm-0.0625 8.640625q0 1.71875 0.828125 2.71875q0.828125 1.0 2.265625 1.0q1.40625 0 2.171875 -1.0q0.78125 -1.0 0.78125 -2.78125q0 -1.59375 -0.8125 -2.609375q-0.8125 -1.03125 -2.25 -1.03125q-1.421875 0 -2.203125 1.046875q-0.78125 1.03125 -0.78125 2.65625zm20.648499 -8.96875q2.25 0 3.765625 1.171875q1.53125 1.171875 1.828125 3.234375l-1.8125 0q-0.296875 -1.390625 -1.296875 -2.125q-1.0 -0.75 -2.5 -0.75q-2.15625 0 -3.375 1.515625q-1.21875 1.515625 -1.21875 3.96875q0 2.59375 1.1875 4.140625q1.203125 1.53125 3.421875 1.53125q1.65625 0 2.71875 -1.046875q1.0625 -1.046875 1.203125 -2.859375l1.796875 0q-0.296875 2.625 -1.828125 4.03125q-1.53125 1.40625 -4.03125 1.40625q-2.921875 0 -4.609375 -1.921875q-1.671875 -1.9375 -1.671875 -5.15625q0 -3.15625 1.734375 -5.140625q1.734375 -2.0 4.6875 -2.0zm11.69165 3.84375q2.234375 0 3.5 1.4375q1.265625 1.4375 1.265625 3.703125q0 2.296875 -1.296875 3.71875q-1.296875 1.421875 -3.46875 1.421875q-2.125 0 -3.453125 -1.390625q-1.3125 -1.40625 -1.3125 -3.75q0 -2.328125 1.28125 -3.734375q1.296875 -1.40625 3.484375 -1.40625zm-3.0625 5.140625q0 1.703125 0.859375 2.703125q0.875 1.0 2.203125 1.0q1.328125 0 2.1875 -1.0q0.875 -1.015625 0.875 -2.703125q0 -1.671875 -0.859375 -2.6875q-0.859375 -1.03125 -2.21875 -1.03125q-1.296875 0 -2.171875 1.015625q-0.875 1.0 -0.875 2.703125zm14.275269 -5.140625q1.0625 0 1.75 0.4375q0.6875 0.4375 0.9375 1.234375q0.5 -0.796875 1.3125 -1.234375q0.8125 -0.4375 1.78125 -0.4375q1.65625 0 2.453125 0.75q0.8125 0.75 0.8125 2.03125l0 7.265625l-1.625 0l0 -6.515625q0 -1.0625 -0.453125 -1.578125q-0.4375 -0.53125 -1.453125 -0.53125q-1.203125 0 -1.875 0.703125q-0.671875 0.703125 -0.671875 1.75l0 6.171875l-1.625 0l0 -6.515625q0 -1.0625 -0.453125 -1.578125q-0.4375 -0.53125 -1.390625 -0.53125q-0.765625 0 -1.359375 0.375q-0.59375 0.359375 -0.9375 1.015625q-0.328125 0.640625 -0.328125 1.078125l0 6.15625l-1.609375 0l0 -9.828125l1.515625 0l0 1.453125l0.046875 0q0.546875 -0.84375 1.328125 -1.25q0.796875 -0.421875 1.84375 -0.421875zm16.023682 0q2.109375 0 3.3125 1.453125q1.203125 1.4375 1.203125 3.71875q0 2.28125 -1.203125 3.703125q-1.203125 1.40625 -3.265625 1.40625q-0.921875 0 -1.796875 -0.375q-0.875 -0.390625 -1.390625 -1.171875l-0.03125 0l0 5.078125l-1.625 0l0 -13.59375l1.625 0l0 1.34375l0.03125 0q0.375 -0.765625 1.1875 -1.15625q0.828125 -0.40625 1.953125 -0.40625zm-3.234375 5.125q0 1.71875 0.828125 2.71875q0.828125 1.0 2.265625 1.0q1.40625 0 2.171875 -1.0q0.78125 -1.0 0.78125 -2.78125q0 -1.59375 -0.8125 -2.609375q-0.8125 -1.03125 -2.25 -1.03125q-1.421875 0 -2.203125 1.046875q-0.78125 1.03125 -0.78125 2.65625zm13.68396 -5.125q2.234375 0 3.5 1.4375q1.265625 1.4375 1.265625 3.703125q0 2.296875 -1.296875 3.71875q-1.296875 1.421875 -3.46875 1.421875q-2.125 0 -3.453125 -1.390625q-1.3125 -1.40625 -1.3125 -3.75q0 -2.328125 1.28125 -3.734375q1.296875 -1.40625 3.484375 -1.40625zm-3.0625 5.140625q0 1.703125 0.859375 2.703125q0.875 1.0 2.203125 1.0q1.328125 0 2.1875 -1.0q0.875 -1.015625 0.875 -2.703125q0 -1.671875 -0.859375 -2.6875q-0.859375 -1.03125 -2.21875 -1.03125q-1.296875 0 -2.171875 1.015625q-0.875 1.0 -0.875 2.703125zm14.290894 -5.140625q1.78125 0 2.578125 0.90625q0.8125 0.90625 0.8125 2.59375l0 6.546875l-1.625 0l0 -6.703125q0 -0.84375 -0.53125 -1.375q-0.53125 -0.546875 -1.484375 -0.546875q-1.359375 0 -2.125 0.84375q-0.765625 0.828125 -0.765625 2.171875l0 5.609375l-1.609375 0l0 -9.828125l1.515625 0l0 1.5625l0.046875 0q0.53125 -0.921875 1.3125 -1.34375q0.78125 -0.4375 1.875 -0.4375zm9.703796 0q2.109375 0 3.28125 1.53125q1.171875 1.515625 1.171875 3.890625l0 0.203125l-7.359375 0l0 0.109375q0 1.40625 0.8125 2.265625q0.828125 0.84375 2.25 0.84375q1.078125 0 1.703125 -0.5q0.640625 -0.5 0.84375 -1.421875l1.59375 0q-0.328125 1.640625 -1.4375 2.5q-1.09375 0.859375 -2.75 0.859375q-1.5625 0 -2.640625 -0.703125q-1.0625 -0.703125 -1.578125 -1.953125q-0.5 -1.25 -0.5 -2.546875q0 -2.171875 1.296875 -3.625q1.3125 -1.453125 3.3125 -1.453125zm-2.90625 4.1875l5.640625 0q-0.078125 -1.1875 -0.875 -1.96875q-0.78125 -0.796875 -1.96875 -0.796875q-1.109375 0 -1.90625 0.75q-0.78125 0.75 -0.890625 2.015625zm13.598572 -4.1875q1.78125 0 2.578125 0.90625q0.8125 0.90625 0.8125 2.59375l0 6.546875l-1.625 0l0 -6.703125q0 -0.84375 -0.53125 -1.375q-0.53125 -0.546875 -1.484375 -0.546875q-1.359375 0 -2.125 0.84375q-0.765625 0.828125 -0.765625 2.171875l0 5.609375l-1.609375 0l0 -9.828125l1.515625 0l0 1.5625l0.046875 0q0.53125 -0.921875 1.3125 -1.34375q0.78125 -0.4375 1.875 -0.4375zm7.8601074 -2.71875l0 2.9375l1.96875 0l0 1.4375l-1.96875 0l0 6.140625q0 0.734375 0.484375 0.78125q0.5 0.046875 1.03125 0.046875l0.453125 0l0 1.421875l-1.34375 0q-1.328125 0 -1.78125 -0.46875q-0.453125 -0.484375 -0.453125 -1.59375l0 -6.328125l-1.671875 0l0 -1.4375l1.671875 0l0 -2.9375l1.609375 0zm6.9068604 2.71875q1.984375 0 2.9375 0.78125q0.96875 0.765625 1.0625 2.28125l-1.609375 0l0 -0.015625q-0.0625 -0.78125 -0.6875 -1.203125q-0.609375 -0.421875 -1.578125 -0.421875q-0.984375 0 -1.546875 0.328125q-0.5625 0.328125 -0.5625 0.921875q0 0.53125 0.5 0.875q0.5 0.34375 1.5 0.5625l1.515625 0.34375q1.4375 0.3125 2.171875 0.96875q0.75 0.65625 0.75 1.765625q0 1.4375 -1.125 2.265625q-1.125 0.828125 -3.0625 0.828125q-1.890625 0 -3.0 -0.84375q-1.09375 -0.84375 -1.171875 -2.484375l1.625 0q0.03125 0.90625 0.71875 1.40625q0.703125 0.484375 1.921875 0.484375q1.171875 0 1.765625 -0.359375q0.609375 -0.375 0.609375 -1.09375q0 -0.671875 -0.609375 -1.046875q-0.59375 -0.390625 -2.4375 -0.765625q-1.859375 -0.359375 -2.625 -1.015625q-0.75 -0.671875 -0.75 -1.765625q0 -1.296875 1.046875 -2.046875q1.046875 -0.75 2.640625 -0.75zm5.890625 -3.84375q1.515625 2.34375 2.25 4.484375q0.734375 2.125 0.734375 4.40625q0 2.3125 -0.78125 4.5625q-0.765625 2.25 -2.203125 4.203125l-1.234375 0q1.265625 -2.015625 1.875 -4.140625q0.625 -2.125 0.625 -4.625q0 -2.53125 -0.625 -4.6875q-0.609375 -2.15625 -1.875 -4.203125l1.234375 0z" fill-rule="nonzero"></path><path fill="#bdc2c6" d="m26.509186 46.71683l0 0c0 -8.187313 6.6371307 -14.824442 14.824444 -14.824442l212.24088 0c3.9316864 0 7.702347 1.5618572 10.482468 4.341978c2.7801208 2.7801208 4.34198 6.5507774 4.34198 10.482464l0 59.295994c0 8.187317 -6.637146 14.824448 -14.824448 14.824448l-212.24088 0c-8.187313 0 -14.824444 -6.6371307 -14.824444 -14.824448z" fill-rule="evenodd"></path><path stroke="#2280c3" stroke-width="4.0" stroke-linejoin="round" stroke-linecap="butt" d="m26.509186 46.71683l0 0c0 -8.187313 6.6371307 -14.824442 14.824444 -14.824442l212.24088 0c3.9316864 0 7.702347 1.5618572 10.482468 4.341978c2.7801208 2.7801208 4.34198 6.5507774 4.34198 10.482464l0 59.295994c0 8.187317 -6.637146 14.824448 -14.824448 14.824448l-212.24088 0c-8.187313 0 -14.824444 -6.6371307 -14.824444 -14.824448z" fill-rule="evenodd"></path><path fill="#000000" d="m113.875946 65.24108l8.921875 22.84375l-3.359375 0l-2.484375 -6.875l-9.671875 0l-2.5625 6.875l-3.125 0l8.921875 -22.84375l3.359375 0zm-1.765625 2.75l-3.859375 10.65625l7.734375 0l-3.796875 -10.65625l-0.078125 0zm19.390625 3.171875q3.03125 0 4.921875 1.4375q1.890625 1.4375 2.21875 4.25l-2.8125 0q-0.328125 -1.609375 -1.40625 -2.453125q-1.0625 -0.84375 -2.6875 -0.84375q-2.53125 0 -3.84375 1.703125q-1.3125 1.6875 -1.3125 4.765625q0 2.75 1.296875 4.40625q1.296875 1.640625 3.53125 1.640625q1.984375 0 3.125 -1.0625q1.15625 -1.078125 1.421875 -2.96875l2.78125 0q-0.453125 3.09375 -2.328125 4.765625q-1.875 1.671875 -4.96875 1.671875q-3.609375 0 -5.671875 -2.265625q-2.0625 -2.28125 -2.0625 -6.1875q0 -4.0625 2.078125 -6.453125q2.09375 -2.40625 5.71875 -2.40625zm14.0625 -4.578125l0 4.953125l3.296875 0l0 2.40625l-3.296875 0l0 10.359375q0 1.234375 0.8125 1.3125q0.828125 0.0625 1.71875 0.0625l0.765625 0l0 2.40625l-2.25 0q-2.234375 0 -3.0 -0.796875q-0.765625 -0.796875 -0.765625 -2.671875l0 -10.671875l-2.828125 0l0 -2.40625l2.828125 0l0 -4.953125l2.71875 0zm9.171875 -1.34375l0 3.328125l-2.71875 0l0 -3.328125l2.71875 0zm0 6.296875l0 16.546875l-2.71875 0l0 -16.546875l2.71875 0zm11.375 -0.375q3.75 0 5.890625 2.421875q2.140625 2.421875 2.140625 6.25q0 3.859375 -2.1875 6.25q-2.1875 2.390625 -5.84375 2.390625q-3.59375 0 -5.8125 -2.34375q-2.21875 -2.359375 -2.21875 -6.296875q0 -3.9375 2.171875 -6.296875q2.171875 -2.375 5.859375 -2.375zm-5.15625 8.671875q0 2.84375 1.453125 4.546875q1.453125 1.6875 3.703125 1.6875q2.234375 0 3.6875 -1.703125q1.46875 -1.703125 1.46875 -4.53125q0 -2.828125 -1.453125 -4.546875q-1.453125 -1.734375 -3.734375 -1.734375q-2.1875 0 -3.65625 1.703125q-1.46875 1.6875 -1.46875 4.578125zm24.40625 -8.671875q2.984375 0 4.328125 1.53125q1.359375 1.53125 1.359375 4.375l0 11.015625l-2.71875 0l0 -11.296875q0 -1.40625 -0.90625 -2.3125q-0.890625 -0.921875 -2.484375 -0.921875q-2.296875 0 -3.59375 1.421875q-1.28125 1.40625 -1.28125 3.65625l0 9.453125l-2.71875 0l0 -16.546875l2.5625 0l0 2.625l0.0625 0q0.90625 -1.546875 2.21875 -2.265625q1.328125 -0.734375 3.171875 -0.734375z" fill-rule="nonzero"></path><path fill="#bdc2c6" d="m26.509186 278.06067l0 0c0 -8.187317 6.6371307 -14.824463 14.824444 -14.824463l212.24088 0c3.9316864 0 7.702347 1.5618591 10.482468 4.34198c2.7801208 2.7801208 4.34198 6.5507812 4.34198 10.482483l0 59.29599c0 8.187317 -6.637146 14.824432 -14.824448 14.824432l-212.24088 0c-8.187313 0 -14.824444 -6.6371155 -14.824444 -14.824432z" fill-rule="evenodd"></path><path stroke="#2280c3" stroke-width="4.0" stroke-linejoin="round" stroke-linecap="butt" d="m26.509186 278.06067l0 0c0 -8.187317 6.6371307 -14.824463 14.824444 -14.824463l212.24088 0c3.9316864 0 7.702347 1.5618591 10.482468 4.34198c2.7801208 2.7801208 4.34198 6.5507812 4.34198 10.482483l0 59.29599c0 8.187317 -6.637146 14.824432 -14.824448 14.824432l-212.24088 0c-8.187313 0 -14.824444 -6.6371155 -14.824444 -14.824432z" fill-rule="evenodd"></path><path fill="#000000" d="m100.39157 296.5849q2.984375 0 4.890625 1.578125q1.90625 1.578125 1.90625 4.40625q0 2.25 -0.984375 3.734375q-0.984375 1.484375 -2.984375 2.046875l0 0.0625q1.734375 0.34375 2.546875 1.625q0.828125 1.265625 0.953125 4.359375q0.078125 2.0 0.375 3.140625q0.296875 1.140625 0.890625 1.890625l-3.390625 0q-0.28125 -0.375 -0.375 -0.734375q-0.078125 -0.375 -0.15625 -1.015625l-0.125 -2.515625q-0.046875 -1.765625 -0.765625 -3.59375q-0.703125 -1.828125 -3.125 -1.90625l-7.515625 0l0 9.765625l-3.03125 0l0 -22.84375l10.890625 0zm-1.359375 10.53125q2.53125 0 3.828125 -0.984375q1.296875 -1.0 1.296875 -3.09375q0 -1.84375 -1.046875 -2.859375q-1.03125 -1.03125 -2.90625 -1.03125l-7.671875 0l0 7.96875l6.5 0zm18.8125 -4.609375q3.5625 0 5.53125 2.5625q1.96875 2.5625 1.96875 6.578125l0 0.328125l-12.390625 0l0 0.203125q0 2.359375 1.375 3.796875q1.375 1.4375 3.78125 1.4375q1.8125 0 2.875 -0.84375q1.078125 -0.84375 1.40625 -2.390625l2.6875 0q-0.546875 2.75 -2.40625 4.203125q-1.859375 1.4375 -4.65625 1.4375q-2.609375 0 -4.421875 -1.171875q-1.796875 -1.1875 -2.65625 -3.28125q-0.859375 -2.109375 -0.859375 -4.3125q0 -3.65625 2.203125 -6.09375q2.203125 -2.453125 5.5625 -2.453125zm-4.890625 7.0625l9.5 0q-0.125 -2.015625 -1.46875 -3.34375q-1.328125 -1.328125 -3.328125 -1.328125q-1.875 0 -3.203125 1.265625q-1.328125 1.265625 -1.5 3.40625zm29.984375 -12.984375l0 22.84375l-2.71875 0l0 -2.234375l-0.0625 0q-0.640625 1.28125 -2.046875 1.953125q-1.390625 0.671875 -3.234375 0.671875q-3.46875 0 -5.546875 -2.40625q-2.0625 -2.40625 -2.0625 -6.296875q0 -3.828125 2.0 -6.21875q2.015625 -2.390625 5.53125 -2.390625q1.625 0 3.078125 0.65625q1.46875 0.65625 2.28125 1.921875l0.0625 0l0 -8.5l2.71875 0zm-12.796875 14.703125q0 2.671875 1.375 4.40625q1.390625 1.71875 3.75 1.71875q2.40625 0 3.71875 -1.71875q1.328125 -1.734375 1.328125 -4.515625q0 -2.828125 -1.359375 -4.546875q-1.359375 -1.734375 -3.890625 -1.734375q-2.34375 0 -3.640625 1.71875q-1.28125 1.703125 -1.28125 4.671875zm19.703125 -8.40625l0 11.28125q0 1.40625 0.890625 2.328125q0.90625 0.921875 2.484375 0.921875q2.34375 0 3.609375 -1.421875q1.28125 -1.4375 1.28125 -3.65625l0 -9.453125l2.71875 0l0 16.546875l-2.5625 0l0 -2.625l-0.0625 0q-0.90625 1.578125 -2.265625 2.296875q-1.359375 0.71875 -3.125 0.71875q-2.890625 0 -4.296875 -1.484375q-1.390625 -1.5 -1.390625 -4.421875l0 -11.03125l2.71875 0zm21.984375 -0.375q3.03125 0 4.921875 1.4375q1.890625 1.4375 2.21875 4.25l-2.8125 0q-0.328125 -1.609375 -1.40625 -2.453125q-1.0625 -0.84375 -2.6875 -0.84375q-2.53125 0 -3.84375 1.703125q-1.3125 1.6875 -1.3125 4.765625q0 2.75 1.296875 4.40625q1.296875 1.640625 3.53125 1.640625q1.984375 0 3.125 -1.0625q1.15625 -1.078125 1.421875 -2.96875l2.78125 0q-0.453125 3.09375 -2.328125 4.765625q-1.875 1.671875 -4.96875 1.671875q-3.609375 0 -5.671875 -2.265625q-2.0625 -2.28125 -2.0625 -6.1875q0 -4.0625 2.078125 -6.453125q2.09375 -2.40625 5.71875 -2.40625zm17.15625 0q3.5625 0 5.53125 2.5625q1.96875 2.5625 1.96875 6.578125l0 0.328125l-12.390625 0l0 0.203125q0 2.359375 1.375 3.796875q1.375 1.4375 3.78125 1.4375q1.8125 0 2.875 -0.84375q1.078125 -0.84375 1.40625 -2.390625l2.6875 0q-0.546875 2.75 -2.40625 4.203125q-1.859375 1.4375 -4.65625 1.4375q-2.609375 0 -4.421875 -1.171875q-1.796875 -1.1875 -2.65625 -3.28125q-0.859375 -2.109375 -0.859375 -4.3125q0 -3.65625 2.203125 -6.09375q2.203125 -2.453125 5.5625 -2.453125zm-4.890625 7.0625l9.5 0q-0.125 -2.015625 -1.46875 -3.34375q-1.328125 -1.328125 -3.328125 -1.328125q-1.875 0 -3.203125 1.265625q-1.328125 1.265625 -1.5 3.40625zm23.4375 -7.078125q0.09375 0 0.171875 0q0.078125 0 0.203125 0.015625l0 2.875q-3.0625 0 -4.53125 1.625q-1.453125 1.625 -1.453125 5.015625l0 7.40625l-2.71875 0l0 -16.546875l2.5625 0l0 3.484375l0.0625 0q0.953125 -1.96875 2.34375 -2.921875q1.40625 -0.953125 3.359375 -0.953125z" fill-rule="nonzero"></path><path fill="#2280c3" d="m26.509186 433.15778l0 0c0 -8.187317 6.6371307 -14.824432 14.824444 -14.824432l212.24088 0c3.9316864 0 7.702347 1.5618591 10.482468 4.34198c2.7801208 2.7801208 4.34198 6.5507812 4.34198 10.482452l0 59.29599c0 8.187317 -6.637146 14.824463 -14.824448 14.824463l-212.24088 0c-8.187313 0 -14.824444 -6.637146 -14.824444 -14.824463z" fill-rule="evenodd"></path><path stroke="#2280c3" stroke-width="4.0" stroke-linejoin="round" stroke-linecap="butt" d="m26.509186 433.15778l0 0c0 -8.187317 6.6371307 -14.824432 14.824444 -14.824432l212.24088 0c3.9316864 0 7.702347 1.5618591 10.482468 4.34198c2.7801208 2.7801208 4.34198 6.5507812 4.34198 10.482452l0 59.29599c0 8.187317 -6.637146 14.824463 -14.824448 14.824463l-212.24088 0c-8.187313 0 -14.824444 -6.637146 -14.824444 -14.824463z" fill-rule="evenodd"></path><path fill="#ffffff" d="m119.11032 451.13516q3.8125 0 6.046875 1.84375q2.234375 1.84375 2.375 5.390625l-2.875 0q-0.265625 -2.34375 -1.6875 -3.5q-1.421875 -1.171875 -3.984375 -1.171875q-2.4375 0 -3.78125 1.015625q-1.34375 1.0 -1.34375 2.875q0 1.34375 1.140625 2.203125q1.15625 0.859375 6.203125 1.875q3.65625 0.75 5.46875 2.296875q1.8125 1.546875 1.8125 4.296875q0 3.1875 -2.609375 5.0q-2.59375 1.8125 -6.328125 1.8125q-4.140625 0 -6.765625 -2.078125q-2.625 -2.078125 -2.65625 -5.984375l2.875 0q0.03125 2.609375 1.859375 4.0625q1.84375 1.4375 4.796875 1.4375q2.765625 0 4.28125 -1.0625q1.515625 -1.078125 1.515625 -3.09375q0 -1.625 -1.390625 -2.609375q-1.390625 -0.984375 -5.046875 -1.6875q-4.875 -0.921875 -6.53125 -2.375q-1.65625 -1.46875 -1.65625 -3.859375q0 -3.078125 2.328125 -4.875q2.34375 -1.8125 5.953125 -1.8125zm16.390625 1.890625l0 4.953125l3.296875 0l0 2.40625l-3.296875 0l0 10.359375q0 1.234375 0.8125 1.3125q0.828125 0.0625 1.71875 0.0625l0.765625 0l0 2.40625l-2.25 0q-2.234375 0 -3.0 -0.796875q-0.765625 -0.796875 -0.765625 -2.671875l0 -10.671875l-2.828125 0l0 -2.40625l2.828125 0l0 -4.953125l2.71875 0zm13.4375 4.578125q3.75 0 5.890625 2.421875q2.140625 2.421875 2.140625 6.25q0 3.859375 -2.1875 6.25q-2.1875 2.390625 -5.84375 2.390625q-3.59375 0 -5.8125 -2.34375q-2.21875 -2.359375 -2.21875 -6.296875q0 -3.9375 2.171875 -6.296875q2.171875 -2.375 5.859375 -2.375zm-5.15625 8.671875q0 2.84375 1.453125 4.546875q1.453125 1.6875 3.703125 1.6875q2.234375 0 3.6875 -1.703125q1.46875 -1.703125 1.46875 -4.53125q0 -2.828125 -1.453125 -4.546875q-1.453125 -1.734375 -3.734375 -1.734375q-2.1875 0 -3.65625 1.703125q-1.46875 1.6875 -1.46875 4.578125zm24.625 -8.6875q0.09375 0 0.171875 0q0.078125 0 0.203125 0.015625l0 2.875q-3.0625 0 -4.53125 1.625q-1.453125 1.625 -1.453125 5.015625l0 7.40625l-2.71875 0l0 -16.546875l2.5625 0l0 3.484375l0.0625 0q0.953125 -1.96875 2.34375 -2.921875q1.40625 -0.953125 3.359375 -0.953125zm9.296875 0.015625q3.5625 0 5.53125 2.5625q1.96875 2.5625 1.96875 6.578125l0 0.328125l-12.390625 0l0 0.203125q0 2.359375 1.375 3.796875q1.375 1.4375 3.78125 1.4375q1.8125 0 2.875 -0.84375q1.078125 -0.84375 1.40625 -2.390625l2.6875 0q-0.546875 2.75 -2.40625 4.203125q-1.859375 1.4375 -4.65625 1.4375q-2.609375 0 -4.421875 -1.171875q-1.796875 -1.1875 -2.65625 -3.28125q-0.859375 -2.109375 -0.859375 -4.3125q0 -3.65625 2.203125 -6.09375q2.203125 -2.453125 5.5625 -2.453125zm-4.890625 7.0625l9.5 0q-0.125 -2.015625 -1.46875 -3.34375q-1.328125 -1.328125 -3.328125 -1.328125q-1.875 0 -3.203125 1.265625q-1.328125 1.265625 -1.5 3.40625z" fill-rule="nonzero"></path><path fill="#ecf0f0" d="m26.509186 176.59337l0 0c0 -5.369293 4.3526783 -9.721985 9.721981 -9.721985l222.4458 0c2.5784302 0 5.051239 1.024292 6.874481 2.8475037c1.8232117 1.8232269 2.8475037 4.296051 2.8475037 6.874481l0 38.88675c0 5.3693085 -4.3526917 9.721985 -9.721985 9.721985l-222.4458 0l0 0c-5.3693027 0 -9.721981 -4.3526764 -9.721981 -9.721985z" fill-rule="evenodd"></path><path stroke="#2280c3" stroke-width="4.0" stroke-linejoin="round" stroke-linecap="butt" d="m26.509186 176.59337l0 0c0 -5.369293 4.3526783 -9.721985 9.721981 -9.721985l222.4458 0c2.5784302 0 5.051239 1.024292 6.874481 2.8475037c1.8232117 1.8232269 2.8475037 4.296051 2.8475037 6.874481l0 38.88675c0 5.3693085 -4.3526917 9.721985 -9.721985 9.721985l-222.4458 0l0 0c-5.3693027 0 -9.721981 -4.3526764 -9.721981 -9.721985z" fill-rule="evenodd"></path><path fill="#000000" d="m70.92282 184.913l7.203125 19.1875l7.234375 -19.1875l4.15625 0l0 22.84375l-2.875 0l0 -19.015625l-0.0625 0l-7.140625 19.015625l-2.59375 0l-7.140625 -19.015625l-0.0625 0l0 19.015625l-2.875 0l0 -22.84375l4.15625 0zm26.078125 0l0 3.328125l-2.71875 0l0 -3.328125l2.71875 0zm0 6.296875l0 16.546875l-2.71875 0l0 -16.546875l2.71875 0zm19.015625 -6.296875l0 22.84375l-2.71875 0l0 -2.234375l-0.0625 0q-0.640625 1.28125 -2.046875 1.953125q-1.390625 0.671875 -3.234375 0.671875q-3.46875 0 -5.546875 -2.40625q-2.0625 -2.40625 -2.0625 -6.296875q0 -3.828125 2.0 -6.21875q2.015625 -2.390625 5.53125 -2.390625q1.625 0 3.078125 0.65625q1.46875 0.65625 2.28125 1.921875l0.0625 0l0 -8.5l2.71875 0zm-12.796875 14.703125q0 2.671875 1.375 4.40625q1.390625 1.71875 3.75 1.71875q2.40625 0 3.71875 -1.71875q1.328125 -1.734375 1.328125 -4.515625q0 -2.828125 -1.359375 -4.546875q-1.359375 -1.734375 -3.890625 -1.734375q-2.34375 0 -3.640625 1.71875q-1.28125 1.703125 -1.28125 4.671875zm31.765625 -14.703125l0 22.84375l-2.71875 0l0 -2.234375l-0.0625 0q-0.640625 1.28125 -2.046875 1.953125q-1.390625 0.671875 -3.234375 0.671875q-3.46875 0 -5.546875 -2.40625q-2.0625 -2.40625 -2.0625 -6.296875q0 -3.828125 2.0 -6.21875q2.015625 -2.390625 5.53125 -2.390625q1.625 0 3.078125 0.65625q1.46875 0.65625 2.28125 1.921875l0.0625 0l0 -8.5l2.71875 0zm-12.796875 14.703125q0 2.671875 1.375 4.40625q1.390625 1.71875 3.75 1.71875q2.40625 0 3.71875 -1.71875q1.328125 -1.734375 1.328125 -4.515625q0 -2.828125 -1.359375 -4.546875q-1.359375 -1.734375 -3.890625 -1.734375q-2.34375 0 -3.640625 1.71875q-1.28125 1.703125 -1.28125 4.671875zm19.859375 -14.703125l0 22.84375l-2.71875 0l0 -22.84375l2.71875 0zm11.109375 5.921875q3.5625 0 5.53125 2.5625q1.96875 2.5625 1.96875 6.578125l0 0.328125l-12.390625 0l0 0.203125q0 2.359375 1.375 3.796875q1.375 1.4375 3.78125 1.4375q1.8125 0 2.875 -0.84375q1.078125 -0.84375 1.40625 -2.390625l2.6875 0q-0.546875 2.75 -2.40625 4.203125q-1.859375 1.4375 -4.65625 1.4375q-2.609375 0 -4.421875 -1.171875q-1.796875 -1.1875 -2.65625 -3.28125q-0.859375 -2.109375 -0.859375 -4.3125q0 -3.65625 2.203125 -6.09375q2.203125 -2.453125 5.5625 -2.453125zm-4.890625 7.0625l9.5 0q-0.125 -2.015625 -1.46875 -3.34375q-1.328125 -1.328125 -3.328125 -1.328125q-1.875 0 -3.203125 1.265625q-1.328125 1.265625 -1.5 3.40625zm16.703125 -6.6875l3.75 13.53125l0.0625 0l3.328125 -13.53125l2.96875 0l3.453125 13.453125l0.03125 0.078125l0.046875 0l3.703125 -13.53125l2.828125 0l-5.265625 16.5l-0.03125 0.046875l-2.875 0l-3.34375 -13.078125l-0.03125 -0.078125l-0.046875 0l-3.328125 13.15625l-2.9375 0l-5.3125 -16.546875l3.0 0zm29.515625 -0.375q3.375 0 4.78125 1.203125q1.421875 1.203125 1.421875 3.21875q0 8.609375 0 9.546875q0 0.9375 0.859375 0.9375q0.1875 0 0.40625 -0.046875q0.21875 -0.046875 0.421875 -0.109375l0 2.109375q-0.375 0.21875 -0.875 0.328125q-0.484375 0.125 -1.0625 0.125q-1.125 0 -1.71875 -0.625q-0.59375 -0.640625 -0.59375 -1.9375q-1.078125 1.28125 -2.546875 1.921875q-1.46875 0.640625 -3.28125 0.640625q-2.5625 0 -4.015625 -1.203125q-1.453125 -1.21875 -1.453125 -3.4375q0 -2.234375 1.421875 -3.53125q1.421875 -1.3125 6.6875 -1.96875q1.78125 -0.234375 2.40625 -0.6875q0.640625 -0.453125 0.640625 -1.359375q0 -1.375 -0.890625 -2.046875q-0.875 -0.6875 -2.796875 -0.6875q-2.015625 0 -3.03125 0.765625q-1.0 0.765625 -1.078125 2.375l-2.71875 0q0.125 -2.75 1.9375 -4.140625q1.8125 -1.390625 5.078125 -1.390625zm-4.78125 12.46875q0 1.15625 0.84375 1.796875q0.84375 0.640625 2.359375 0.640625q2.296875 0 3.671875 -1.140625q1.375 -1.140625 1.375 -2.546875l0 -2.84375q-0.6875 0.484375 -1.78125 0.65625q-1.09375 0.171875 -2.90625 0.421875q-1.8125 0.265625 -2.6875 0.984375q-0.875 0.71875 -0.875 2.03125zm23.4375 -12.484375q0.09375 0 0.171875 0q0.078125 0 0.203125 0.015625l0 2.875q-3.0625 0 -4.53125 1.625q-1.453125 1.625 -1.453125 5.015625l0 7.40625l-2.71875 0l0 -16.546875l2.5625 0l0 3.484375l0.0625 0q0.953125 -1.96875 2.34375 -2.921875q1.40625 -0.953125 3.359375 -0.953125zm9.296875 0.015625q3.5625 0 5.53125 2.5625q1.96875 2.5625 1.96875 6.578125l0 0.328125l-12.390625 0l0 0.203125q0 2.359375 1.375 3.796875q1.375 1.4375 3.78125 1.4375q1.8125 0 2.875 -0.84375q1.078125 -0.84375 1.40625 -2.390625l2.6875 0q-0.546875 2.75 -2.40625 4.203125q-1.859375 1.4375 -4.65625 1.4375q-2.609375 0 -4.421875 -1.171875q-1.796875 -1.1875 -2.65625 -3.28125q-0.859375 -2.109375 -0.859375 -4.3125q0 -3.65625 2.203125 -6.09375q2.203125 -2.453125 5.5625 -2.453125zm-4.890625 7.0625l9.5 0q-0.125 -2.015625 -1.46875 -3.34375q-1.328125 -1.328125 -3.328125 -1.328125q-1.875 0 -3.203125 1.265625q-1.328125 1.265625 -1.5 3.40625z" fill-rule="nonzero"></path><path fill="#000000" fill-opacity="0.0" d="m659.09186 75.45407l-388.47244 2.2677155" fill-rule="evenodd"></path><path stroke="#ff9900" stroke-width="4.0" stroke-linejoin="round" stroke-linecap="butt" d="m659.09186 75.45407l-364.47284 2.127617" fill-rule="evenodd"></path><path fill="#ff9900" stroke="#ff9900" stroke-width="4.0" stroke-linecap="butt" d="m294.58044 70.97487l-18.113525 6.712784l18.190674 6.5008545z" fill-rule="evenodd"></path><path fill="#000000" fill-opacity="0.0" d="m658.1811 73.63517l2.015747 217.16537" fill-rule="evenodd"></path><path stroke="#ff9900" stroke-width="4.0" stroke-linejoin="round" stroke-linecap="butt" d="m658.1811 73.63517l2.015747 217.16537" fill-rule="evenodd"></path><path fill="#000000" fill-opacity="0.0" d="m147.45407 352.1811l0 66.141754" fill-rule="evenodd"></path><path stroke="#ff9900" stroke-width="4.0" stroke-linejoin="round" stroke-linecap="butt" d="m147.45407 352.1811l0 42.141754" fill-rule="evenodd"></path><path fill="#ff9900" stroke="#ff9900" stroke-width="4.0" stroke-linecap="butt" d="m140.84714 394.32285l6.6069336 18.152374l6.6069336 -18.152374z" fill-rule="evenodd"></path><path fill="#000000" fill-opacity="0.0" d="m147.45407 117.61155l0 57.259834" fill-rule="evenodd"></path><path stroke="#ff9900" stroke-width="4.0" stroke-linejoin="round" stroke-linecap="butt" d="m147.45407 117.61155l0 33.259834" fill-rule="evenodd"></path><path fill="#ff9900" stroke="#ff9900" stroke-width="4.0" stroke-linecap="butt" d="m140.84714 150.8714l6.6069336 18.15239l6.6069336 -18.15239z" fill-rule="evenodd"></path><path fill="#000000" fill-opacity="0.0" d="m147.45407 221.61154l0 57.259857" fill-rule="evenodd"></path><path stroke="#ff9900" stroke-width="4.0" stroke-linejoin="round" stroke-linecap="butt" d="m147.45407 221.61154l0 33.259842" fill-rule="evenodd"></path><path fill="#ff9900" stroke="#ff9900" stroke-width="4.0" stroke-linecap="butt" d="m140.84714 254.8714l6.6069336 18.152374l6.6069336 -18.152374z" fill-rule="evenodd"></path></g></svg>

